<svg width="231" height="168" viewBox="0 0 231 168" fill="none" xmlns="http://www.w3.org/2000/svg">
<path d="M205.335 13.6885H27.6607C23.9552 13.6928 20.4028 15.1667 17.7826 17.7868C15.1624 20.407 13.6885 23.9595 13.6842 27.665V116.093C13.6885 119.799 15.1624 123.351 17.7826 125.972C20.4028 128.592 23.9552 130.066 27.6607 130.07H205.335C209.041 130.067 212.594 128.593 215.215 125.973C217.835 123.352 219.309 119.799 219.312 116.093V27.665C219.309 23.9591 217.835 20.406 215.215 17.7856C212.594 15.1651 209.041 13.6916 205.335 13.6885Z" fill="white"/>
<path d="M205.336 130.759H27.6639C23.7761 130.755 20.0489 129.208 17.2998 126.459C14.5507 123.71 13.0044 119.983 13 116.095V27.6639C13.0044 23.7761 14.5507 20.0489 17.2998 17.2998C20.0489 14.5507 23.7761 13.0044 27.6639 13H205.336C209.224 13.0044 212.951 14.5507 215.7 17.2998C218.449 20.0489 219.996 23.7761 220 27.6639V116.095C219.996 119.983 218.449 123.71 215.7 126.459C212.951 129.208 209.224 130.755 205.336 130.759ZM27.6639 14.3743C24.1405 14.3783 20.7626 15.7798 18.2712 18.2712C15.7798 20.7626 14.3783 24.1405 14.3743 27.6639V116.095C14.3783 119.618 15.7798 122.996 18.2712 125.488C20.7626 127.979 24.1405 129.381 27.6639 129.385H205.336C208.86 129.381 212.237 127.979 214.729 125.488C217.22 122.996 218.622 119.618 218.626 116.095V27.6639C218.622 24.1405 217.22 20.7626 214.729 18.2712C212.237 15.7798 208.86 14.3783 205.336 14.3743H27.6639Z" fill="#CCCCCC"/>
<path d="M213.509 155.205H43.2427C41.771 155.205 40.3595 154.621 39.3189 153.58C38.2782 152.539 37.6935 151.128 37.6935 149.656C37.6935 148.184 38.2782 146.773 39.3189 145.732C40.3595 144.692 41.771 144.107 43.2427 144.107H213.509C214.981 144.107 216.392 144.692 217.433 145.732C218.474 146.773 219.058 148.184 219.058 149.656C219.058 151.128 218.474 152.539 217.433 153.58C216.392 154.621 214.981 155.205 213.509 155.205Z" fill="#E6E6E6"/>
<path d="M63.9313 99.313C62.9226 99.31 61.9311 99.0518 61.0492 98.5623C60.1058 98.0535 59.3189 97.2971 58.7731 96.3746C58.2274 95.4521 57.9435 94.3982 57.9518 93.3264V43.9741C57.9518 42.904 58.2392 41.8535 58.7841 40.9325C59.3289 40.0115 60.1111 39.2537 61.0489 38.7383C61.9868 38.223 63.0458 37.969 64.1154 38.003C65.185 38.037 66.2258 38.3576 67.129 38.9314L113.945 63.6075C114.794 64.1469 115.493 64.8919 115.977 65.7734C116.461 66.6549 116.715 67.6444 116.715 68.6502C116.715 69.6561 116.461 70.6456 115.977 71.5271C115.493 72.4086 114.794 73.1536 113.945 73.693L67.129 98.3691C66.175 98.9823 65.0654 99.3098 63.9313 99.313V99.313Z" fill="#F2F2F2"/>
<path d="M31.9796 113.184C30.9709 113.181 29.9794 112.923 29.0975 112.433C28.1541 111.924 27.3672 111.168 26.8215 110.245C26.2758 109.323 25.9918 108.269 26.0002 107.197V57.845C26.0002 56.7748 26.2876 55.7244 26.8324 54.8033C27.3772 53.8823 28.1594 53.1245 29.0973 52.6092C30.0351 52.0939 31.0942 51.8399 32.1638 51.8739C33.2333 51.9078 34.2741 52.2285 35.1774 52.8022L81.9931 77.4784C82.842 78.0178 83.5411 78.7627 84.0254 79.6442C84.5098 80.5257 84.7637 81.5153 84.7637 82.5211C84.7637 83.5269 84.5098 84.5164 84.0254 85.3979C83.5411 86.2795 82.842 87.0244 81.9931 87.5638L35.1774 112.24C34.2233 112.853 33.1137 113.181 31.9796 113.184V113.184Z" fill="#6C63FF"/>
<path d="M179.478 13.6885V32.3513C179.478 33.2789 177.857 34.0554 175.671 34.2684C175.653 34.2673 175.634 34.2696 175.617 34.2753C175.252 34.3028 174.868 34.3234 174.476 34.3234C173.271 34.3455 172.072 34.15 170.937 33.7462C170.834 33.705 170.731 33.6569 170.628 33.6156C170.532 33.5607 170.429 33.5126 170.332 33.4576C169.79 33.1346 169.473 32.7567 169.473 32.3513V13.6885H179.478Z" fill="#CCCCCC"/>
<path d="M138.715 68.4415C136.055 68.4494 133.924 67.9557 132.321 66.9604C130.718 65.9452 129.913 64.3976 129.907 62.3176C129.904 61.2176 130.091 60.377 130.47 59.7959C130.848 59.2148 131.407 58.9231 132.147 58.9209C132.687 58.9193 133.127 59.058 133.468 59.337C133.809 59.616 133.98 59.9755 133.981 60.4155C133.983 60.8155 133.954 61.1656 133.895 61.4658C133.895 61.5458 133.875 61.6858 133.836 61.8859C133.816 62.086 133.807 62.296 133.808 62.516C133.81 63.416 134.262 64.0847 135.164 64.522C136.085 64.9593 137.366 65.1755 139.006 65.1706C140.706 65.1656 142.035 64.8617 142.993 64.2588C143.951 63.636 144.429 62.7745 144.425 61.6746C144.423 60.9946 144.202 60.4152 143.76 59.9365C143.319 59.4378 142.767 59.0295 142.106 58.7114C141.445 58.3734 140.514 57.9661 139.313 57.4897C137.771 56.8943 136.509 56.328 135.528 55.7909C134.566 55.2537 133.734 54.5262 133.031 53.6083C132.349 52.6703 132.005 51.5113 132.001 50.1313C131.997 48.6913 132.373 47.4102 133.13 46.288C133.906 45.1657 135.014 44.2924 136.452 43.6681C137.91 43.0438 139.619 42.7287 141.579 42.7229C143.039 42.7186 144.38 42.9346 145.601 43.371C146.822 43.7874 147.794 44.4345 148.517 45.3124C149.259 46.1902 149.633 47.2691 149.636 48.5491C149.64 49.809 149.453 50.7596 149.075 51.4007C148.697 52.0419 148.138 52.3635 147.398 52.3657C146.878 52.3672 146.437 52.2085 146.076 51.8896C145.735 51.5706 145.564 51.1911 145.563 50.7511C145.562 50.3711 145.591 50.021 145.65 49.7009C145.708 49.1007 145.737 48.7206 145.736 48.5606C145.734 47.7206 145.322 47.0818 144.501 46.6443C143.679 46.2067 142.659 45.9897 141.439 45.9933C139.719 45.9984 138.4 46.3223 137.482 46.9651C136.583 47.5877 136.136 48.4691 136.139 49.6091C136.142 50.3691 136.374 51.0184 136.835 51.557C137.317 52.0956 137.908 52.5438 138.609 52.9017C139.31 53.2597 140.292 53.6868 141.553 54.183C143.075 54.7985 144.297 55.3549 145.218 55.8522C146.139 56.3495 146.921 57.0271 147.564 57.8852C148.227 58.7433 148.56 59.8023 148.563 61.0623C148.57 63.4223 147.676 65.2449 145.88 66.5303C144.103 67.7955 141.715 68.4326 138.715 68.4415ZM166.418 58.9094C166.678 58.9086 166.878 59.038 167.019 59.2976C167.16 59.5572 167.231 59.887 167.232 60.287C167.235 61.247 166.947 61.8178 166.367 61.9995C165.168 62.4231 163.849 62.667 162.409 62.7313C162.034 64.4124 161.288 65.7646 160.171 66.7879C159.054 67.7912 157.786 68.295 156.366 68.2992C155.166 68.3028 154.135 68.0158 153.273 67.4384C152.431 66.8609 151.789 66.0928 151.346 65.1341C150.903 64.1754 150.68 63.136 150.677 62.016C150.673 60.496 150.959 59.1452 151.535 57.9635C152.112 56.7618 152.909 55.8294 153.927 55.1664C154.945 54.4833 156.074 54.14 157.314 54.1363C158.834 54.1318 160.055 54.6582 160.978 55.7155C161.922 56.7527 162.475 58.041 162.64 59.5806C163.58 59.5178 164.699 59.3145 165.998 58.9706C166.158 58.9301 166.298 58.9097 166.418 58.9094ZM156.596 65.1185C157.236 65.1166 157.786 64.855 158.244 64.3336C158.722 63.8122 159.04 63.0613 159.197 62.0808C158.576 61.6626 158.094 61.114 157.752 60.4351C157.43 59.756 157.268 59.0365 157.266 58.2765C157.265 57.9565 157.294 57.6364 157.353 57.3162L157.203 57.3167C156.403 57.319 155.734 57.711 155.197 58.4926C154.679 59.2542 154.422 60.3349 154.426 61.7349C154.43 62.8349 154.642 63.6743 155.064 64.253C155.505 64.8317 156.016 65.1202 156.596 65.1185ZM170.411 68.2576C168.451 68.2634 166.919 67.7179 165.816 66.6212C164.733 65.5044 164.188 64.036 164.183 62.216C164.178 60.596 164.494 59.1751 165.13 57.9532C165.767 56.7313 166.594 55.7888 167.612 55.1258C168.63 54.4628 169.699 54.1296 170.819 54.1263C171.919 54.123 172.77 54.4505 173.372 55.1087C173.994 55.7469 174.306 56.576 174.309 57.596C174.312 58.436 174.124 59.1465 173.746 59.7277C173.387 60.3087 172.908 60.6001 172.308 60.6019C171.928 60.6031 171.618 60.514 171.377 60.3347C171.157 60.1553 171.046 59.9057 171.045 59.5857C171.045 59.4457 171.064 59.2856 171.104 59.1055C171.143 58.9254 171.173 58.7953 171.193 58.7152C171.292 58.4149 171.341 58.1348 171.34 57.8748C171.339 57.6148 171.269 57.415 171.128 57.2754C171.008 57.1358 170.828 57.0663 170.588 57.067C170.128 57.0684 169.698 57.2796 169.3 57.7008C168.901 58.102 168.582 58.653 168.344 59.3537C168.106 60.0544 167.989 60.8247 167.991 61.6647C167.998 63.9847 169.012 65.1417 171.032 65.1357C171.852 65.1333 172.731 64.8607 173.669 64.3179C174.627 63.7551 175.565 62.9223 176.482 61.8196C176.721 61.5389 176.991 61.3981 177.291 61.3972C177.551 61.3964 177.751 61.5158 177.892 61.7554C178.052 61.9949 178.133 62.3247 178.135 62.7447C178.137 63.5047 177.949 64.1252 177.57 64.6063C176.633 65.7691 175.506 66.6725 174.188 67.3164C172.89 67.9402 171.631 68.254 170.411 68.2576ZM179.608 52.1203C178.768 52.1227 178.137 51.9346 177.716 51.5559C177.295 51.1571 177.083 50.6077 177.081 49.9077C177.079 49.2077 177.348 48.6269 177.886 48.1653C178.445 47.6837 179.134 47.4416 179.954 47.4392C180.694 47.437 181.295 47.6152 181.756 47.9739C182.217 48.3325 182.448 48.8418 182.45 49.5018C182.453 50.3018 182.194 50.9426 181.676 51.4241C181.157 51.8857 180.468 52.1177 179.608 52.1203ZM179.416 68.2309C178.116 68.2347 177.164 67.7776 176.562 66.8593C175.979 65.9411 175.685 64.7219 175.681 63.2019C175.678 62.3019 175.785 61.1516 176.001 59.751C176.236 58.3303 176.532 57.0094 176.889 55.7883C177.067 55.1478 177.306 54.7071 177.605 54.4662C177.904 54.2253 178.384 54.1039 179.044 54.1019C180.064 54.0989 180.575 54.4374 180.577 55.1174C180.578 55.6174 180.392 56.778 180.017 58.5991C179.544 60.8005 179.308 62.2912 179.31 63.0712C179.312 63.6712 179.394 64.1309 179.554 64.4505C179.715 64.77 179.986 64.9292 180.366 64.9281C180.726 64.927 181.175 64.6757 181.714 64.1741C182.252 63.6725 182.97 62.8803 183.867 61.7977C184.106 61.517 184.375 61.3762 184.675 61.3753C184.935 61.3745 185.136 61.4939 185.276 61.7335C185.437 61.973 185.518 62.3028 185.519 62.7228C185.522 63.5228 185.334 64.1433 184.955 64.5845C182.982 67.0103 181.136 68.2258 179.416 68.2309ZM186.798 68.209C185.558 68.2127 184.567 67.7656 183.824 66.8678C183.082 65.97 182.708 64.7911 182.704 63.3311C182.699 61.7311 183.065 60.22 183.801 58.7979C184.536 57.3557 185.513 56.2028 186.73 55.3392C187.968 54.4555 189.276 54.0116 190.656 54.0075C191.096 54.0062 191.387 54.0954 191.527 54.2749C191.688 54.4345 191.819 54.7341 191.92 55.1738C192.34 55.0925 192.78 55.0512 193.24 55.0499C194.22 55.047 194.711 55.3955 194.713 56.0955C194.714 56.5155 194.567 57.516 194.272 59.0968C193.818 61.3982 193.593 62.9989 193.596 63.8989C193.597 64.1989 193.667 64.4386 193.808 64.6182C193.968 64.7978 194.169 64.8872 194.409 64.8865C194.789 64.8853 195.248 64.644 195.787 64.1624C196.325 63.6608 197.053 62.8586 197.969 61.7559C198.209 61.4752 198.478 61.3344 198.778 61.3335C199.038 61.3327 199.239 61.4521 199.379 61.6917C199.54 61.9312 199.621 62.261 199.622 62.681C199.625 63.481 199.436 64.1016 199.058 64.5427C198.241 65.5651 197.373 66.4277 196.455 67.1304C195.537 67.8331 194.648 68.1858 193.788 68.1883C193.128 68.1903 192.518 67.9721 191.957 67.5337C191.415 67.0753 191.003 66.4566 190.721 65.6774C189.686 67.3605 188.378 68.2043 186.798 68.209ZM187.869 65.1758C188.309 65.1745 188.729 64.9133 189.127 64.3921C189.526 63.8709 189.814 63.1801 189.991 62.3195L191.085 56.7963C190.245 56.8188 189.466 57.1411 188.748 57.7632C188.049 58.3653 187.492 59.1669 187.075 60.1682C186.658 61.1694 186.451 62.23 186.454 63.35C186.456 63.97 186.577 64.4297 186.818 64.7289C187.079 65.0282 187.429 65.1771 187.869 65.1758ZM205.857 63.7725C206.077 63.5719 206.296 63.4712 206.516 63.4706C206.756 63.4699 206.947 63.6093 207.088 63.8889C207.248 64.1484 207.329 64.4682 207.33 64.8482C207.333 65.6882 207.035 66.359 206.436 66.8608C205.399 67.7239 204.22 68.1574 202.9 68.1613C201 68.1669 199.608 67.3811 198.723 65.8037C197.838 64.2063 197.392 62.1276 197.385 59.5676C197.377 57.1276 197.679 54.3467 198.29 51.2249C198.921 48.103 199.843 45.4203 201.056 43.1767C202.29 40.933 203.756 39.8086 205.456 39.8036C206.416 39.8008 207.168 40.2485 207.71 41.1469C208.273 42.0253 208.557 43.2944 208.561 44.9544C208.569 47.3344 207.917 50.0964 206.606 53.2403C205.315 56.3841 203.545 59.4894 201.294 62.556C201.436 63.3756 201.688 63.9649 202.049 64.3238C202.41 64.6827 202.9 64.8613 203.52 64.8595C203.86 64.8584 204.24 64.7573 204.66 64.5561C205.099 64.3548 205.498 64.0936 205.857 63.7725ZM204.805 42.7755C204.345 42.7769 203.827 43.6084 203.252 45.2702C202.677 46.9319 202.173 48.9934 201.741 51.4547C201.308 53.916 201.075 56.2767 201.042 58.5368C202.455 56.1926 203.578 53.8492 204.411 51.5068C205.244 49.1443 205.657 46.993 205.652 45.053C205.647 43.5331 205.365 42.7739 204.805 42.7755ZM126.59 94.0275C126.85 94.0268 127.051 94.1562 127.191 94.4158C127.332 94.6753 127.403 95.0051 127.404 95.4051C127.407 96.3651 127.119 96.936 126.539 97.1177C125.341 97.5413 124.021 97.7852 122.581 97.8494C122.206 99.5306 121.46 100.883 120.344 101.906C119.226 102.909 117.958 103.413 116.538 103.417C115.338 103.421 114.307 103.134 113.445 102.557C112.604 101.979 111.961 101.211 111.519 100.252C111.076 99.2935 110.853 98.2542 110.849 97.1342C110.845 95.6142 111.131 94.2634 111.707 93.0816C112.284 91.8799 113.081 90.9476 114.099 90.2845C115.117 89.6015 116.246 89.2582 117.486 89.2545C119.006 89.25 120.228 89.7764 121.151 90.8336C122.094 91.8709 122.648 93.1592 122.812 94.6987C123.752 94.636 124.871 94.4326 126.17 94.0888C126.33 94.0483 126.47 94.0279 126.59 94.0275ZM116.769 100.237C117.409 100.235 117.958 99.9732 118.416 99.4518C118.895 98.9304 119.212 98.1794 119.37 97.199C118.748 96.7808 118.267 96.2322 117.925 95.5532C117.603 94.8742 117.441 94.1547 117.438 93.3947C117.437 93.0747 117.466 92.7546 117.525 92.4344L117.375 92.4348C116.575 92.4372 115.907 92.8292 115.369 93.6108C114.851 94.3723 114.594 95.4531 114.599 96.8531C114.602 97.9531 114.814 98.7925 115.236 99.3712C115.678 99.9499 116.189 100.238 116.769 100.237ZM146.046 97.7199C146.346 97.599 146.596 97.5383 146.796 97.5377C147.116 97.5367 147.356 97.656 147.517 97.8956C147.678 98.1351 147.759 98.4448 147.76 98.8248C147.761 99.4248 147.613 99.9353 147.314 100.356C147.035 100.777 146.547 101.158 145.848 101.501C144.669 102.064 143.141 102.519 141.262 102.864C139.383 103.19 137.533 103.355 135.713 103.361C133.193 103.368 131.082 103.094 129.381 102.539C127.679 101.964 126.407 101.178 125.564 100.181C124.741 99.183 124.327 98.0543 124.324 96.7943C124.318 95.0743 124.864 93.6127 125.961 92.4094C127.077 91.1861 128.714 90.3012 130.873 89.7548C129.692 89.4183 128.78 88.821 128.137 87.9629C127.515 87.1048 127.202 86.1457 127.199 85.0857C127.195 83.6457 127.641 82.3744 128.538 81.2717C129.454 80.149 130.682 79.2854 132.22 78.6808C133.758 78.0762 135.447 77.7712 137.287 77.7658C139.767 77.7584 141.629 78.2929 142.872 79.3692C144.115 80.4256 144.739 81.8037 144.744 83.5037C144.748 84.6837 144.531 85.6443 144.093 86.3856C143.675 87.1069 143.066 87.4687 142.266 87.4711C141.706 87.4727 141.266 87.354 140.945 87.115C140.624 86.8559 140.463 86.4764 140.462 85.9764C140.461 85.6364 140.509 85.2663 140.608 84.866C140.706 84.2057 140.755 83.7555 140.754 83.5155C140.752 82.7955 140.48 82.2163 139.939 81.7779C139.398 81.3195 138.497 81.0922 137.237 81.0959C135.537 81.101 134.178 81.465 133.16 82.188C132.142 82.911 131.635 83.8826 131.639 85.1025C131.642 86.0425 132.024 86.8214 132.786 87.4392C133.568 88.0368 134.829 88.3631 136.569 88.418C137.009 88.4366 137.319 88.5357 137.5 88.7152C137.68 88.8947 137.771 89.1944 137.772 89.6144C137.776 90.9344 137.178 91.6062 135.978 91.6297C134.318 91.6746 132.939 91.9087 131.84 92.332C130.762 92.7552 129.973 93.2975 129.475 93.959C128.997 94.6004 128.759 95.2911 128.761 96.0311C128.765 97.2711 129.348 98.2094 130.51 98.846C131.671 99.4625 133.512 99.7671 136.032 99.7596C137.692 99.7547 139.442 99.5595 141.281 99.174C143.139 98.7685 144.728 98.2838 146.046 97.7199ZM147.549 103.325C146.789 103.328 146.248 102.929 145.926 102.13C145.623 101.331 145.47 100.052 145.464 98.2916C145.457 95.6916 145.819 93.2206 146.553 90.8784C146.731 90.2978 147.02 89.877 147.419 89.6158C147.838 89.3346 148.418 89.1928 149.158 89.1907C149.558 89.1895 149.838 89.2386 149.998 89.3382C150.158 89.4377 150.239 89.6274 150.24 89.9074C150.241 90.2274 150.093 90.9479 149.796 92.0688C149.598 92.8694 149.44 93.5698 149.322 94.1702C149.204 94.7505 149.106 95.4808 149.029 96.3611C149.564 94.7995 150.2 93.4776 150.937 92.3954C151.694 91.3131 152.461 90.5109 153.24 89.9886C154.038 89.4462 154.787 89.174 155.487 89.1719C156.187 89.1698 156.678 89.3284 156.959 89.6475C157.26 89.9666 157.411 90.4562 157.413 91.1162C157.415 91.7562 157.229 92.9167 156.854 94.5979C156.696 95.3183 156.587 95.8587 156.528 96.2188C157.521 93.7559 158.626 91.9626 159.842 90.839C161.059 89.7154 162.197 89.152 163.257 89.1489C164.557 89.145 165.209 89.7931 165.213 91.0931C165.216 91.8731 165 93.2837 164.566 95.325C164.191 97.0661 164.004 98.2167 164.006 98.7767C164.008 99.5767 164.3 99.9758 164.88 99.9741C165.28 99.9729 165.749 99.7315 166.287 99.2499C166.846 98.7483 167.584 97.9461 168.5 96.8434C168.739 96.5627 169.009 96.4219 169.309 96.421C169.569 96.4202 169.769 96.5396 169.91 96.7792C170.071 97.0187 170.152 97.3485 170.153 97.7685C170.155 98.5685 169.967 99.189 169.589 99.6302C168.732 100.693 167.804 101.565 166.806 102.248C165.828 102.931 164.709 103.275 163.449 103.278C162.429 103.281 161.658 102.994 161.137 102.415C160.615 101.817 160.352 100.958 160.349 99.8375C160.347 99.2775 160.484 98.2771 160.76 96.8363C161.016 95.5755 161.144 94.7052 161.142 94.2252C161.142 93.9052 161.031 93.7455 160.811 93.7461C160.551 93.7469 160.182 94.088 159.704 94.7694C159.226 95.4308 158.749 96.3123 158.272 97.4137C157.795 98.5151 157.409 99.6762 157.112 100.897C156.895 101.858 156.637 102.499 156.338 102.819C156.059 103.14 155.599 103.302 154.959 103.304C154.299 103.305 153.798 102.997 153.457 102.378C153.135 101.739 152.972 100.969 152.97 100.069C152.968 99.3094 153.064 98.2091 153.26 96.7685C153.416 95.4881 153.494 94.6478 153.493 94.2478C153.492 93.9278 153.381 93.7682 153.161 93.7688C152.861 93.7697 152.482 94.1308 152.024 94.8522C151.566 95.5735 151.119 96.4949 150.682 97.6162C150.266 98.7374 149.929 99.8384 149.672 100.919C149.455 101.86 149.197 102.501 148.898 102.841C148.619 103.162 148.169 103.324 147.549 103.325ZM183.676 93.8584C183.936 93.8576 184.136 93.987 184.277 94.2466C184.418 94.5062 184.489 94.836 184.49 95.236C184.491 95.736 184.422 96.1262 184.283 96.4066C184.144 96.667 183.925 96.8477 183.625 96.9485C182.426 97.3721 181.107 97.616 179.667 97.6803C179.272 99.3415 178.516 100.684 177.399 101.707C176.302 102.73 175.083 103.244 173.744 103.248C171.724 103.254 170.251 102.488 169.327 100.951C168.402 99.4137 167.936 97.185 167.927 94.2651C167.919 91.6851 168.231 88.8841 168.862 85.8622C169.493 82.8204 170.415 80.2376 171.629 78.114C172.863 75.9703 174.329 74.896 176.029 74.891C176.949 74.8882 177.691 75.286 178.253 76.0844C178.815 76.8627 179.098 77.8819 179.102 79.1419C179.107 80.7819 178.802 82.4128 178.187 84.0346C177.571 85.6564 176.546 87.3595 175.112 89.1437C176.452 89.2398 177.544 89.7965 178.387 90.814C179.23 91.8115 179.733 93.0501 179.898 94.5296C180.838 94.4668 181.957 94.2635 183.256 93.9196C183.376 93.8793 183.516 93.8589 183.676 93.8584ZM175.348 77.863C174.948 77.8642 174.51 78.4655 174.034 79.6669C173.577 80.8483 173.152 82.4595 172.758 84.5007C172.364 86.5419 172.071 88.7728 171.878 91.1933C173.191 88.7694 174.234 86.6363 175.009 84.794C175.803 82.9317 176.198 81.2805 176.194 79.8405C176.192 79.2005 176.111 78.7107 175.95 78.3712C175.809 78.0316 175.608 77.8622 175.348 77.863ZM173.854 100.068C174.474 100.066 175.023 99.804 175.502 99.2826C175.98 98.7612 176.298 98.0103 176.455 97.0298C175.834 96.6116 175.352 96.0631 175.01 95.3841C174.688 94.705 174.526 93.9855 174.524 93.2255C174.523 92.9455 174.562 92.5654 174.64 92.0852L174.55 92.0854C173.73 92.0878 173.042 92.4999 172.484 93.3215C171.946 94.1231 171.68 95.2039 171.684 96.5639C171.687 97.7039 171.9 98.5733 172.321 99.1721C172.763 99.7707 173.274 100.069 173.854 100.068ZM195.283 96.344C195.543 96.3432 195.743 96.4626 195.884 96.7022C196.045 96.9417 196.126 97.2715 196.127 97.6915C196.129 98.4915 195.941 99.1121 195.562 99.5532C194.825 100.455 193.777 101.288 192.42 102.053C191.082 102.816 189.643 103.201 188.103 103.205C186.003 103.212 184.371 102.646 183.208 101.51C182.045 100.373 181.46 98.815 181.454 96.835C181.45 95.455 181.736 94.1741 182.313 92.9924C182.889 91.7907 183.686 90.8383 184.704 90.1353C185.742 89.4322 186.911 89.0788 188.211 89.0749C189.371 89.0715 190.302 89.4187 191.004 90.1167C191.706 90.7946 192.059 91.7235 192.063 92.9035C192.067 94.2835 191.57 95.475 190.573 96.478C189.596 97.4609 187.928 98.2458 185.57 98.8328C186.073 99.7513 187.024 100.208 188.424 100.204C189.324 100.202 190.343 99.8887 191.481 99.2653C192.64 98.6218 193.637 97.7889 194.474 96.7664C194.713 96.4857 194.983 96.3449 195.283 96.344ZM187.71 92.0164C186.97 92.0186 186.341 92.4505 185.824 93.312C185.326 94.1735 185.079 95.2142 185.083 96.4342L185.083 96.4942C186.262 96.2107 187.191 95.788 187.869 95.226C188.548 94.664 188.886 94.0129 188.884 93.2729C188.883 92.893 188.772 92.5933 188.551 92.3739C188.35 92.1345 188.07 92.0154 187.71 92.0164ZM204.454 96.3168C204.679 97.9562 205.003 99.5752 205.428 101.174C205.509 101.434 205.55 101.704 205.55 101.984C205.553 102.884 205.004 103.335 203.904 103.338C203.284 103.34 202.804 103.172 202.463 102.833C202.142 102.494 201.84 101.855 201.557 100.915L201.527 100.796C200.77 101.738 200.082 102.37 199.463 102.692C198.863 103.013 198.164 103.175 197.364 103.178C196.144 103.181 195.133 102.734 194.33 101.837C193.547 100.919 193.154 99.7303 193.149 98.2703C193.145 96.6703 193.48 95.1893 194.156 93.8273C194.832 92.4653 195.759 91.3526 196.936 90.4891C198.114 89.6056 199.432 89.0717 200.892 88.8873C201.26 85.1062 201.971 81.8141 203.022 79.011C204.094 76.2078 205.52 74.8036 207.3 74.7983C208.16 74.7957 208.871 75.1836 209.433 75.962C210.016 76.7403 210.309 77.9194 210.314 79.4994C210.32 81.6994 209.788 84.271 208.717 87.2142C207.645 90.1573 206.224 93.1916 204.454 96.3168ZM206.979 77.7393C206.399 77.741 205.853 79.2226 205.342 82.1841C204.851 85.1456 204.52 88.3666 204.35 91.8471C206.556 87.0406 207.655 83.1373 207.646 80.1373C207.643 79.3773 207.572 78.7875 207.43 78.3679C207.309 77.9483 207.159 77.7387 206.979 77.7393ZM198.405 100.145C198.805 100.144 199.185 99.9925 199.544 99.6914C199.923 99.3903 200.401 98.8088 200.978 97.9471C200.774 96.4877 200.67 94.978 200.665 93.418C200.663 92.798 200.672 92.318 200.691 91.978C199.592 92.3012 198.684 93.0339 197.967 94.176C197.251 95.3182 196.894 96.5792 196.898 97.9592C196.903 99.4192 197.405 100.148 198.405 100.145Z" fill="black"/>
</svg>
