<svg
  width="512"
  height="512"
  viewBox="0 0 512 512"
  fill="none"
  xmlns="http://www.w3.org/2000/svg"
>
  <path
    d="M211.539 84.9229L201.599 88.6683L187.15 87.2305C168.529 85.2069 168.92 85.3134 158.997 83.4851C149.536 81.6745 149.057 81.7633 134.98 86.84L124.667 90.4789L119.076 88.757C103.065 83.6804 102.585 83.5916 90.9233 84.2484C78.8705 84.9229 65.38 86.9465 57.3745 89.1476C50.3275 91.1534 48.6944 93.745 47.9134 104.484C47.2388 113.874 46.5643 115.223 40.6001 118.578C35.9672 121.152 34.9021 123.655 34.3341 133.613C34.0323 138.122 33.1626 143.5 32.3993 145.506C31.4407 148.186 31.3342 149.624 32.0088 150.973C32.5945 152.02 33.1626 152.89 33.2691 152.89C33.3578 152.89 35.7719 152.216 38.5765 151.541C42.8189 150.387 44.0615 150.387 46.2803 151.452C49.0849 152.784 59.5933 155.571 66.7291 156.813C76.4565 158.446 78.0008 158.73 83.5922 159.973C86.7696 160.754 92.5563 161.801 96.4082 162.476C104.414 163.807 104.804 164.588 100.846 170.321C97.3845 175.309 94.2959 175.895 84.5508 173.783C80.3083 172.824 74.6281 171.67 71.93 171.191C69.2319 170.712 65.0783 169.753 62.7707 169.079C60.4453 168.511 56.984 167.641 55.1556 167.162C43.1917 164.588 36.3577 162.28 34.2276 160.452C32.0088 158.251 31.92 158.251 30.0917 160.168C28.4409 161.801 28.0504 163.718 27.7663 173.978C27.4823 180.581 27.0918 189.208 26.7013 193.149C25.654 207.136 25.3523 223.041 25.0682 283.731C24.873 332.705 25.0682 345.84 26.0268 348.893C26.8078 351.006 27.2871 353.508 27.2871 354.36C27.2871 355.319 27.6776 356.082 28.2456 356.082C28.7426 356.082 29.1154 355.319 29.1154 354.272C29.1154 353.313 30.1804 351.769 31.4407 351.006C33.5531 349.568 34.3341 349.568 39.9256 350.917C48.9784 353.118 70.1905 358.78 77.3262 360.875C80.8054 361.94 85.8111 363.271 88.4204 363.857C91.1185 364.532 93.6214 365.384 94.1006 365.774C94.6864 366.253 96.5147 366.626 98.343 366.626H101.627L99.8873 363.946C98.2543 361.656 98.059 358.958 97.775 340.657L97.3845 319.96L99.8873 317.368L102.301 314.688L104.219 318.415C105.284 320.528 107.023 325.036 108.177 328.48C109.331 332.03 111.07 335.864 112.224 337.107C113.289 338.261 115.792 342.095 117.922 345.538C121.383 351.396 124.667 355.035 134.98 364.62C139.507 368.934 139.897 369.981 137.111 371.614C132.957 374.206 134.501 375.164 145.294 376.797C150.992 377.561 157.826 379.673 160.435 381.395C166.807 385.513 179.819 388.193 192.067 387.909C196.007 387.82 204.687 388.584 211.344 389.631C218 390.59 229.379 391.743 236.603 391.939L249.81 392.507L252.028 389.826C253.377 388.193 256.945 386.099 260.992 384.554C264.756 383.117 269.389 381.004 271.306 379.762C273.24 378.608 277.199 376.318 279.986 374.685C290.796 368.366 306.7 347.757 310.464 335.296C312.185 329.35 314.032 322.551 315.185 317.084C315.469 315.841 315.274 314.883 314.706 314.883C313.534 314.883 310.748 323.119 310.464 327.717C310.268 329.634 309.878 331.178 309.487 331.178C309.008 331.178 308.724 331.657 308.724 332.137C308.724 334.142 304.375 337.87 301.482 338.349C296.867 339.219 295.713 337.781 295.89 331.657C296.086 328.782 295.997 326.385 295.713 326.385C295.518 326.385 294.364 328.391 293.299 330.876C287.121 344.686 280.181 355.905 276.134 358.39C275.371 358.78 273.826 360.218 272.761 361.549C269.389 365.384 260.708 371.614 259.359 371.241C258.578 370.94 260.992 367.78 265.43 363.183C269.477 359.064 274.11 353.597 275.743 351.112C280.66 343.923 285.577 330.699 286.056 323.51C286.252 320.048 286.252 318.131 285.968 319.196C285.382 321.291 285.009 322.249 280.855 331.462C279.222 335.012 277.873 338.261 277.873 338.829C277.873 341.136 268.998 354.556 265.341 357.715C263.992 358.869 261.862 359.916 260.602 359.916C258.578 359.916 258.401 359.632 258.969 356.863C259.253 355.124 259.927 353.597 260.318 353.207C260.708 352.923 261.862 351.006 262.927 348.893C263.992 346.799 265.341 344.402 266.016 343.621C266.584 342.858 267.365 341.047 267.56 339.698C267.844 338.349 268.714 335.296 269.477 332.989C272.087 325.427 272.282 322.924 270.631 321.593C269.389 320.528 269.193 320.723 269.193 322.551C269.193 325.604 263.691 341.047 260.797 346.408C251.638 362.899 243.348 368.845 239.408 361.656C238.059 359.26 238.059 358.78 239.976 355.425C241.041 353.402 242.479 350.047 243.153 347.935C243.828 345.84 244.697 343.621 245.088 343.142C246.437 341.331 249.916 323.989 250.2 317.084C250.591 310.179 249.81 307.215 247.786 307.215C247.023 307.215 246.916 307.499 247.591 308.173C248.745 309.309 246.827 327.149 245.088 332.137C239.496 347.562 235.254 354.076 225.331 362.703C215.675 371.046 207.013 374.596 192.635 376.318C183.777 377.277 181.061 376.993 167.766 373.531C151.666 369.324 132.566 353.792 121.49 335.775C119.466 332.509 117.816 329.154 117.816 328.302C117.816 327.521 117.141 325.906 116.378 324.752C115.597 323.599 113.378 318.131 111.55 312.487C107.307 299.83 106.633 290.92 109.437 284.867C110.875 281.902 111.354 278.547 111.461 272.228C111.656 262.927 112.224 261.205 117.816 254.389C127.561 242.407 132.194 238.679 143.572 233.407C158.802 226.307 178.754 225.828 192.741 232.058C194.374 232.822 196.398 233.407 197.268 233.407C198.137 233.407 198.812 233.78 198.812 234.259C198.812 235.502 210.563 242.034 211.539 241.36C212.693 240.685 210.474 238.2 208.841 238.2C208.06 238.2 207.492 237.525 207.492 236.762C207.492 235.981 206.906 235.324 206.338 235.324C204.971 235.324 194.765 230.425 192.83 228.899C190.718 227.177 170.553 222.384 169.008 223.236C168.724 223.431 165.458 223.911 161.695 224.195C153.21 224.958 148.489 225.739 147.228 226.698C146.749 227.07 145.205 227.745 143.856 228.135C140.572 229.094 132.868 233.887 127.17 238.484C122.537 242.212 116.857 249.88 115.029 254.673C114.052 257.175 108.656 260.53 107.023 259.572C103.935 257.939 109.632 245.087 117.532 235.804C126.78 224.78 143.749 214.716 158.323 211.734C172.292 208.769 197.853 209.923 205.362 213.846C206.817 214.609 208.93 215.195 209.995 215.195C211.149 215.195 212.302 215.852 212.693 216.633C212.977 217.396 214.042 218.071 215.107 218.071C216.172 218.071 217.415 218.834 218 219.686C218.675 221.035 219.243 221.124 220.024 220.361C220.698 219.686 220.787 219.029 220.308 218.728C215.302 215.763 206.338 211.361 205.078 211.361C204.297 211.361 203.622 210.97 203.622 210.491C203.622 210.012 201.989 209.444 200.054 209.142C198.031 208.858 193.114 208.184 189.173 207.527C184.824 206.852 177.209 206.568 170.18 206.941C158.216 207.42 154.755 206.568 159.956 204.545C161.393 203.977 163.524 203.018 164.589 202.539C168.724 200.711 180.298 198.225 185.801 198.03C195.634 197.746 210.758 200.515 217.326 203.781C218.284 204.261 219.829 204.651 220.787 204.651C221.763 204.651 223.397 205.308 224.462 206.089C227.248 208.184 227.923 207.811 227.248 204.74C226.183 199.663 232.077 199.557 239.496 204.545C241.911 206.178 244.325 207.527 244.697 207.527C246.348 207.527 257.141 215.284 260.034 218.55C263.123 221.905 268.235 223.999 268.235 221.905C268.235 221.23 267.56 220.946 266.69 221.319C265.625 221.71 265.235 221.514 265.625 220.556C265.909 219.793 264.756 217.875 262.732 216.154L259.359 213.083L261.294 211.059C264.276 208.184 270.631 208.379 275.548 211.538C277.767 212.976 279.79 213.935 280.092 213.651C280.376 213.367 280.856 214.13 281.246 215.373C282.009 217.591 283.358 219.029 285.009 219.029C285.577 219.029 285.204 218.444 284.335 217.769C283.465 217.201 282.489 215.479 282.205 214.13C281.14 209.923 283.554 208.965 295.606 208.858C301.482 208.769 309.203 208.663 312.86 208.574C316.428 208.485 319.321 208.095 319.321 207.704C319.321 206.568 306.594 203.586 300.133 203.107C297.257 202.912 290.299 202.148 284.707 201.385C279.027 200.622 269.282 199.273 262.927 198.314C256.555 197.462 250.591 196.397 249.614 195.829C248.265 195.155 247.307 195.439 245.372 197.356C242.283 200.427 237.082 200.711 231.775 197.941C228.509 196.202 225.225 195.35 215.675 193.522C214.131 193.238 205.646 192.67 196.877 192.368C187.327 191.995 180.972 191.32 180.972 190.752C180.972 190.167 183.582 188.729 186.759 187.398C191.96 185.285 193.788 185.001 204.599 185.09C214.237 185.179 217.894 185.569 222.917 187.291C226.29 188.445 231.296 189.599 233.994 189.883C238.147 190.362 239.017 190.273 239.017 188.924C239.017 188.054 238.627 187.398 238.147 187.398C237.757 187.398 237.366 186.918 237.366 186.439C237.366 184.806 239.496 185.001 270.152 189.403C283.163 191.232 308.138 195.155 313.055 196.113C323.191 198.119 325.019 198.705 329.457 201.101C334.747 204.065 336.486 204.261 337.356 202.148C338.314 199.557 342.078 198.9 349.497 199.859C353.367 200.338 363.574 201.19 372.36 201.776C381.129 202.344 393.271 203.213 399.359 203.693C405.43 204.172 414.394 204.829 419.116 205.13C436.28 206.267 438.215 206.462 438.979 207.225C439.369 207.616 440.044 209.817 440.416 212.018C441.002 215.958 440.913 216.154 438.02 217.396C435.89 218.355 433.103 218.444 428.47 217.964C414.784 216.438 398.578 215 392.987 214.716C389.809 214.609 385.655 214.13 383.827 213.757C381.999 213.367 378.147 212.888 375.254 212.692C367.816 212.213 350.846 210.686 343.728 209.817C338.811 209.337 337.64 209.444 337.64 210.491C337.445 231.49 337.64 246.348 338.03 262.643C339.184 306.824 339.575 324.362 340.054 355.124C340.338 372.768 340.835 388.974 341.119 391.069C341.51 394.14 341.208 395.489 339.575 397.601C334.747 403.725 327.717 404.204 326.847 398.453C326.563 396.341 326.936 395.205 328.197 394.246C329.83 393.181 330.025 391.743 329.83 383.791C329.741 378.714 330.025 374.01 330.327 373.442C330.699 372.857 330.611 372.377 330.025 372.377C329.546 372.377 328.782 372.768 328.481 373.336C328.197 373.815 326.847 374.294 325.587 374.294C322.215 374.294 321.931 375.448 323.67 382.069C324.913 386.862 325.019 388.495 324.043 390.785C322.605 394.335 318.647 396.341 313.162 396.341C310.748 396.341 308.529 396.82 308.245 397.406C307.854 397.974 306.984 398.169 306.31 397.885C305.635 397.69 304.766 398.08 304.482 398.737C304.198 399.518 303.328 399.891 302.547 399.607C301.784 399.323 300.434 399.518 299.565 399.997C298.02 400.761 301.003 401.524 314.99 403.725C316.055 403.832 318.451 404.311 320.297 404.595C322.126 404.968 324.433 405.163 325.303 405.074C326.173 404.968 328.676 405.358 330.699 405.837C332.829 406.405 340.054 407.364 346.906 407.843C353.74 408.429 362.136 409.281 365.615 409.76C369.076 410.346 374.668 410.914 378.147 411.109C381.608 411.393 385.087 411.784 385.851 412.068C386.632 412.352 392.117 413.026 397.903 413.594C421.618 415.813 435.606 417.535 438.215 418.494C441.765 420.02 441.765 423.57 438.109 425.487C435.322 426.925 424.512 427.795 422.879 426.73C422.293 426.446 419.79 425.967 417.092 425.576C414.483 425.292 410.631 424.813 408.518 424.529C406.388 424.245 402.927 423.854 400.797 423.57C398.684 423.375 393.466 422.701 389.223 422.044C384.981 421.458 378.236 420.89 374.277 420.695C370.337 420.499 364.248 419.931 360.787 419.452C357.308 418.973 347.776 417.819 339.575 416.949C331.374 416.097 321.842 414.855 318.363 414.18C314.884 413.417 311.032 412.831 309.683 412.831C308.334 412.938 304.766 412.157 301.677 411.305C298.606 410.435 294.169 409.76 291.843 409.76C289.536 409.76 287.317 409.281 287.033 408.802C286.731 408.234 284.423 407.843 281.921 407.843C279.418 407.843 275.264 407.186 272.655 406.405C269.957 405.642 264.756 404.684 261.099 404.488C257.336 404.204 252.809 403.441 251.07 402.962C249.33 402.394 247.591 402.092 247.395 402.394C247.111 402.678 244.413 402.287 241.325 401.613C238.343 400.849 233.035 400.086 229.663 399.802C226.183 399.518 219.545 398.648 214.716 397.779C205.841 396.341 199.38 395.382 194.853 395.01C193.504 394.814 191.96 394.424 191.392 394.14C190.895 393.856 187.434 393.288 183.777 392.986C180.103 392.702 175.381 391.85 173.251 391.175C171.139 390.412 166.133 389.631 162.174 389.258C158.216 388.868 153.69 388.193 152.057 387.714C150.512 387.235 145.879 386.667 141.726 386.383C137.679 386.187 132.957 385.513 131.129 384.945C129.389 384.359 121.685 382.833 113.964 381.395C99.4968 378.803 88.8997 376.513 85.527 375.164C84.462 374.774 80.3083 373.726 76.3677 372.768C72.4093 371.898 68.3621 370.762 67.4924 370.372C66.6226 369.892 64.1197 369.324 61.9009 369.023C59.6821 368.738 56.5934 367.886 55.1556 367.105C53.6113 366.342 51.1972 365.668 49.8482 365.668C46.6708 365.668 36.4464 362.135 36.0559 360.875C35.8607 360.307 35.0086 359.916 34.1388 359.916C33.3578 359.916 31.8135 359.153 30.7662 358.195C28.8314 356.668 28.8314 356.668 29.4172 358.958C29.7899 360.307 30.0917 361.833 30.0917 362.419C30.0917 363.271 36.3577 365.668 39.7303 366.147C40.7776 366.342 45.1265 367.78 46.9548 368.543C49.9369 369.892 59.8773 372.377 65.2735 373.247C67.9716 373.726 72.0188 374.774 74.4329 375.644C76.847 376.513 80.8941 377.472 83.397 377.756C86.0063 378.04 89.1837 378.91 90.444 379.762C91.6865 380.525 92.7516 380.827 92.7516 380.436C92.7516 379.957 93.1421 380.046 93.5326 380.525C94.3846 381.785 113.768 386.471 121.188 387.341C131.803 388.495 133.738 388.673 136.613 389.631C138.264 390.11 142.791 390.785 146.749 391.069C150.69 391.459 156.778 392.134 160.24 392.702C163.719 393.181 168.92 393.767 171.813 393.944C174.706 394.051 177.884 394.53 178.86 394.903C179.712 395.294 181.168 395.294 182.037 395.01C182.801 394.725 183.28 394.814 182.996 395.294C182.712 395.684 185.126 396.341 188.499 396.731C194.658 397.299 204.971 399.128 207.492 399.997C208.255 400.175 210.865 400.565 213.279 400.761C220.894 401.435 230.337 402.767 231.402 403.441C231.97 403.725 236.017 404.488 240.455 404.968C247.981 405.837 253.377 406.796 263.407 408.802C265.821 409.388 269.282 409.956 271.128 410.24C272.956 410.435 278.157 411.305 282.684 412.157C287.228 412.938 294.257 414.074 298.5 414.553C302.653 415.139 306.416 415.707 306.789 415.991C309.292 417.535 339.291 420.89 359.331 421.849C366.289 422.221 372.36 422.807 372.928 423.286C373.514 423.766 379.585 424.529 386.437 425.097C393.271 425.576 400.406 426.446 402.252 427.014C404.081 427.493 411.021 428.363 417.678 428.842C424.316 429.41 430.973 430.191 432.517 430.671C437.345 432.002 444.765 430.369 450.552 426.73C453.339 424.919 459.232 421.653 463.474 419.452C482.272 409.76 484.189 407.754 484.189 397.406C484.189 394.246 484.864 389.542 485.734 387.057C486.994 383.596 487.083 380.827 486.604 374.401C486.213 369.892 485.734 362.029 485.539 357.041C485.255 352.071 484.971 346.018 484.775 343.621C483.817 333.184 482.84 294.452 483.142 282.293C483.32 276.914 482.361 252.578 481.687 245.868C481.296 241.36 481.012 232.254 481.207 225.633C481.491 212.604 480.622 209.249 476.29 206.178C472.811 203.693 470.308 204.349 461.06 209.923C451.422 215.763 447.552 217.201 447.552 215C447.552 214.13 450.836 211.45 454.883 208.858C465.303 202.255 468.959 198.598 468.569 195.439C468.391 194.001 467.61 192.368 466.741 191.888C465.108 190.841 464.433 191.232 451.794 199.663C446.984 202.912 443.132 204.349 442.067 203.302C441.091 202.344 443.807 199.859 452.38 194.001C462.498 187.202 463.474 185.09 462.019 173.872C461.54 169.949 460.865 166.115 460.581 165.351C459.995 163.718 454.209 159.6 452.664 159.6C449.966 159.6 449.008 156.334 449.292 148.666C449.576 141.104 449.576 140.802 446.398 137.27C442.83 133.24 436.174 130.933 416.701 127.01C407.844 125.181 404.56 124.986 390.377 125.377L374.277 125.856L371.384 121.738C369.751 119.43 368.491 117.14 368.491 116.555C368.491 115.987 366.858 114.549 364.923 113.306C361.461 111.087 358.089 110.129 351.627 109.366C350.083 109.17 344.882 108.318 340.054 107.555C335.332 106.685 328.001 105.815 323.865 105.531C319.623 105.159 315.469 104.484 314.511 104.005C313.534 103.419 311.227 103.046 309.292 103.046C305.245 103.046 302.937 102.283 302.937 100.845C302.937 100.259 302.068 97.9697 301.003 95.7508C298.216 89.9996 292.819 87.6033 283.944 88.0825C279.897 88.3843 275.548 89.3428 272.655 90.5854C268.324 92.5024 258.969 93.461 256.75 92.1119C256.466 91.9167 254.158 91.4374 251.833 91.0646C245.478 90.1949 242.78 88.9523 240.845 85.7927C238.911 82.5266 235.254 81.1953 232.272 82.8106C225.225 86.3607 218.568 90.5854 218.089 91.8279C217.415 93.8337 210.758 98.2537 208.45 98.2537C203.338 98.2537 208.166 92.3072 218 86.4672C223.113 83.4851 225.331 81 222.722 81C222.048 81.0888 217.024 82.8106 211.539 84.9229ZM156.477 88.5618L158.802 90.3901L155.127 91.8279C151.755 93.2657 145.294 93.0705 144.335 91.5439C144.14 91.1534 144.619 89.9996 145.4 88.8636C147.317 86.1654 153.299 85.9879 156.477 88.5618ZM79.2611 88.0825C79.2611 88.9523 70.3857 93.3545 67.8829 93.8337C66.4273 94.029 63.7292 94.7035 61.9009 95.2715C60.0726 95.8573 57.6585 96.3366 56.5934 96.3366C52.9368 96.3366 58.049 92.6977 65.2735 90.1949C71.149 88.189 79.2611 86.9465 79.2611 88.0825ZM180.777 90.3014C182.907 90.7806 183.191 91.0646 182.233 92.2184C179.233 95.8573 172.204 97.4904 171.139 94.7923C170.375 92.8752 174.618 88.473 176.641 89.1476C177.405 89.5203 179.233 89.9996 180.777 90.3014ZM231.597 89.0411C231.597 89.5203 225.331 93.461 224.462 93.461C222.917 93.461 224.16 91.5439 226.574 90.3014C229.183 88.8636 231.597 88.2778 231.597 89.0411ZM125.342 92.2184C129.779 93.461 131.324 94.313 131.324 95.6621C131.324 98.7329 128.626 103.81 126.691 104.378C124.383 105.159 122.253 109.845 123.034 112.436C123.886 114.922 121.383 116.945 119.076 115.596C118.117 115.028 117.816 114.549 118.49 114.549C119.75 114.549 119.271 112.152 117.532 109.951C116.271 108.407 114.922 110.129 114.922 113.306C114.922 114.549 114.443 115.507 113.875 115.507C113.378 115.507 113.094 115.88 113.378 116.359C114.159 117.62 111.461 119.537 109.437 119.146C108.088 118.862 107.786 117.992 107.982 114.07C108.177 110.04 108.763 108.798 111.461 106.401C114.443 103.721 114.638 103.33 113.573 100.65C113.005 99.0169 111.94 96.7094 111.177 95.378C110.396 94.029 109.721 92.2184 109.632 91.2599C109.437 89.7156 110.005 89.6268 114.354 89.9996C117.052 90.3014 121.969 91.3486 125.342 92.2184ZM287.796 91.9167C290.121 93.6562 290.015 93.9402 285.382 96.6206C281.051 99.1057 279.506 99.4962 274.11 99.3009C271.217 99.2122 271.022 99.0169 272.175 97.5791C274.305 95.1828 282.009 90.5854 284.139 90.6741C285.204 90.6741 286.837 91.2599 287.796 91.9167ZM203.25 95.4668C204.492 96.9046 204.971 98.9282 205.078 102.851V108.212L210.865 109.472C214.042 110.04 218.675 110.608 221.178 110.715C223.681 110.715 226.68 111.087 227.923 111.567C229.183 112.046 234.1 112.916 238.822 113.59C243.65 114.158 249.419 115.117 251.833 115.703C254.247 116.271 257.726 116.839 259.555 117.034C261.383 117.229 265.714 117.797 269.193 118.276C277.004 119.537 281.051 118.667 287.707 114.265C290.601 112.348 294.932 109.845 297.435 108.798C301.588 106.969 302.263 106.88 308.919 108.212C316.055 109.65 325.019 110.91 341.51 112.72C346.515 113.2 351.911 113.963 353.367 114.354C356.154 115.028 356.154 115.117 354.326 117.14C352.781 119.057 344.776 123.655 328.96 132.086C324.043 134.678 323.191 134.767 316.428 134.199C312.487 133.915 308.813 133.24 308.245 132.761C307.766 132.37 303.612 131.518 299.085 130.933C294.541 130.365 288.098 129.495 284.619 129.016C281.14 128.536 274.59 127.684 269.957 127.099C265.341 126.53 259.448 125.572 256.945 125.093C254.442 124.507 246.916 123.176 240.26 122.111C233.621 121.063 227.16 120.016 225.811 119.821C224.462 119.537 220.113 118.951 216.172 118.472C206.143 117.318 194.853 115.596 194.09 115.117C193.416 114.638 179.535 112.632 173.748 112.152C166.222 111.478 151.95 109.65 150.406 109.17C145.01 107.555 152.341 104.005 161.021 104.005C168.156 104.005 172.878 102.656 185.801 96.9046C194.853 92.8752 200.445 92.3959 203.25 95.4668ZM89.8582 95.8573C91.4025 96.6206 93.1421 98.0584 93.6214 99.0169C94.5799 100.845 94.2959 118.099 93.3373 119.146C92.4676 119.909 87.9411 120.016 87.9411 119.146C87.9411 118.756 88.4204 118.188 88.8997 117.904C89.4677 117.513 89.663 116.839 89.3789 116.359C88.9884 115.88 89.3789 115.507 90.0535 115.507C91.012 115.507 91.012 115.312 89.9647 114.638C89.2902 114.158 88.8997 113.395 89.2902 112.827C89.5742 112.348 89.2902 111.389 88.5092 110.803C86.0063 108.691 84.5508 112.632 85.1365 119.821C85.3318 121.259 88.3139 125.093 89.3789 125.093C89.4677 125.093 94.2959 125.945 100.083 127.01C105.869 128.057 112.224 128.927 114.248 128.927C117.62 128.927 117.816 129.122 116.857 130.844C115.313 133.613 108.567 136.79 105.479 136.116C104.041 135.832 101.822 135.353 100.473 135.051C99.1241 134.767 97.3845 134.483 96.6035 134.483C95.1657 134.483 85.0478 132.175 72.4981 129.211C66.6226 127.773 61.2264 126.726 53.3273 125.572C51.4813 125.288 49.1737 124.507 48.1086 124.028C46.2803 122.98 46.2803 122.892 48.5879 120.584C51.5878 117.62 55.6349 117.14 59.3981 119.341C61.0311 120.193 62.8594 120.779 63.534 120.584C64.1197 120.389 65.9481 120.868 67.5811 121.631C70.581 123.264 76.1724 123.655 77.8055 122.412C78.8705 121.631 78.9593 118.276 77.912 116.661C77.5215 115.987 75.9772 116.359 73.4743 117.513C69.9064 119.235 68.9302 119.341 63.534 118.276C55.6349 116.839 51.286 113.59 51.286 109.366C51.286 107.253 52.067 105.531 53.7001 104.005C55.9189 101.893 56.5934 101.804 60.7471 102.656C66.0546 103.721 68.6462 103.419 68.6462 101.697C68.6462 100.064 72.4093 96.7094 75.3914 95.4668C79.0658 94.029 86.6808 94.2243 89.8582 95.8573ZM149.927 95.094C151.08 96.1413 155.607 96.2301 161.695 95.4668C167.961 94.6148 169.115 94.7923 168.334 96.7094C167.482 99.0169 160.63 101.413 156.672 100.845C152.909 100.259 143.856 101.893 140.181 103.898C137.288 105.443 135.939 104.484 136.72 101.413C137.679 97.5791 141.832 94.5083 145.879 94.4195C147.814 94.4195 149.642 94.7035 149.927 95.094ZM258.49 95.7508C260.904 96.6206 262.058 97.7744 262.821 100.259C263.691 102.851 264.472 103.614 266.69 103.81C268.519 104.005 269.761 103.614 270.347 102.656C271.607 100.543 273.72 100.739 275.069 103.135C276.045 105.052 275.939 105.159 273.72 104.768C271.696 104.378 271.412 104.679 271.607 106.969C271.891 110.431 271.306 111.194 267.17 112.916C264.081 114.158 262.821 114.158 254.638 112.525C249.614 111.567 245.478 110.715 245.372 110.715C244.413 110.608 245.372 107.644 246.526 107.253C247.307 106.88 247.981 105.727 247.981 104.484C247.981 101.325 242.976 99.585 240.845 101.981C239.976 102.94 239.301 104.378 239.301 105.247C239.301 107.839 233.994 109.756 228.402 109.17C222.811 108.602 218.089 107.076 218.089 105.815C218.089 104.963 229.663 98.0584 234.775 95.8573C238.627 94.1355 253.963 94.1355 258.49 95.7508ZM104.893 109.082C106.26 112.152 104.414 117.513 101.432 119.057C100.171 119.625 98.7336 120.016 98.343 119.714C96.7987 118.756 97.5798 111.957 99.6033 109.366C102.017 106.295 103.544 106.206 104.893 109.082ZM128.91 111.389C128.43 113.395 128.04 113.59 127.17 112.632C126.3 111.673 126.3 111.283 127.277 110.999C127.845 110.715 128.43 109.65 128.519 108.514C128.519 107.36 128.821 106.969 129.105 107.644C129.389 108.318 129.3 110.04 128.91 111.389ZM156.388 114.07C169.008 115.596 178.274 117.14 179.339 117.708C179.712 117.992 182.801 118.472 186.28 118.756C189.741 119.146 204.013 121.347 218.089 123.655C246.721 128.252 256.377 129.69 268.235 130.844C272.761 131.323 279.702 132.37 283.66 133.134C287.601 134.004 294.541 135.051 299.085 135.637C317.404 137.838 323.28 139.275 326.936 142.151C328.782 143.678 330.611 145.701 330.895 146.749C331.374 148.577 334.658 153.849 335.812 154.807C336.096 155.091 336.965 156.92 337.551 158.837C338.226 160.843 340.054 163.434 341.598 164.765C343.143 166.115 344.403 167.552 344.403 168.032C344.403 169.185 347.296 169.949 349.125 169.381C349.994 169.079 349.604 168.316 347.669 166.789L344.882 164.588L347.296 161.996C348.645 160.647 351.521 159.014 353.74 158.357C357.308 157.399 357.893 156.92 357.893 154.701C357.893 153.263 358.568 150.867 359.331 149.429C360.982 146.18 361.177 143.678 359.828 142.826C359.331 142.542 358.852 141.193 358.852 139.95C358.852 135.051 372.928 129.885 384.892 130.453C405.625 131.323 414.962 131.998 419.116 132.761C421.814 133.24 426.251 133.915 428.949 134.199C433.192 134.767 434.346 135.353 435.695 137.554C436.564 139.08 438.393 140.802 439.742 141.477C443.895 143.589 444.375 144.157 443.895 146.66C443.611 148.186 442.635 149.251 441.286 149.624C438.588 150.299 436.955 153.849 436.76 159.316C436.671 161.996 436.085 163.523 435.127 163.913C434.257 164.197 433.476 164.002 433.281 163.523C433.103 162.955 432.322 162.476 431.559 162.476C430.689 162.476 430.298 162.848 430.689 163.328C431.452 164.677 424.512 165.83 423.269 164.588C422.488 163.807 422.595 162.671 423.447 160.452C424.618 157.772 424.512 157.292 423.163 156.245C422.293 155.571 421.53 154.523 421.53 153.849C421.53 152.89 421.139 152.979 419.879 154.044C418.92 154.896 416.613 155.482 414.784 155.375C412.938 155.287 410.347 155.766 408.998 156.44C407.063 157.399 406.3 157.399 404.453 156.245C402.625 155.003 401.951 155.003 398.968 156.245C395.791 157.576 395.489 157.576 394.14 155.571C391.637 152.127 389.809 154.807 389.898 161.606C390.093 168.032 391.353 169.753 395.117 168.795C396.75 168.316 399.252 168.901 402.732 170.623C405.625 171.954 408.412 173.02 408.998 173.02C409.672 173.02 409.956 173.588 409.761 174.156C409.477 175.025 406.868 175.416 400.708 175.309C387.981 175.114 373.035 173.978 372.36 173.197C372.058 172.824 370.141 172.54 368.011 172.434C360.876 172.238 356.828 171.759 356.349 170.907C356.065 170.517 354.61 170.144 352.976 170.144C349.125 170.144 349.32 172.629 353.367 174.262C356.154 175.505 372.058 177.333 387.306 178.291C390.484 178.575 394.62 178.948 396.466 179.144C399.927 179.729 419.79 181.256 424.902 181.451C430.103 181.646 436.476 182.782 437.718 183.741C438.979 184.895 439.369 198.598 438.109 200.515C436.76 202.628 432.997 203.302 427.991 202.539C425.186 202.06 418.441 201.474 412.85 201.19C407.258 200.995 401.187 200.427 399.359 200.143C397.513 199.752 394.247 199.468 392.117 199.379C384.502 198.989 358.568 196.876 357.982 196.504C357.609 196.308 353.367 195.918 348.539 195.634C343.728 195.35 336.096 194.675 331.676 194.196C327.238 193.628 321.061 193.042 317.883 192.758C314.706 192.563 310.943 191.888 309.487 191.32C306.896 190.362 300.133 189.315 284.139 187.291C279.897 186.812 274.305 185.96 271.607 185.374C268.998 184.895 265.537 184.327 263.886 184.131C262.342 183.936 258.401 183.262 255.206 182.694C252.028 182.126 247.023 181.345 244.129 181.061C241.236 180.865 234.668 179.907 229.663 179.144C212.018 176.374 203.054 175.025 194.463 173.978C189.741 173.392 181.647 172.238 176.641 171.475C171.618 170.712 165.068 169.842 162.174 169.558C157.453 169.079 152.536 168.316 130.845 164.286C125.147 163.239 120.23 162.671 110.591 162.085C107.982 161.996 105.088 161.606 104.325 161.322C103.544 161.038 99.6033 160.275 95.6449 159.6C91.6865 158.925 87.8346 158.056 86.9649 157.683C84.746 156.529 72.1253 153.849 68.9302 153.849C67.4036 153.849 65.7528 153.565 65.38 153.174C65.0783 152.784 64.2085 152.411 63.534 152.216C61.7056 151.825 45.1265 149.145 43.9727 149.056C43.4934 149.056 42.1266 148.47 41.1681 147.707C39.535 146.553 39.3398 145.311 39.535 139.364C39.7303 133.045 40.1031 131.998 42.3219 130.081C44.452 128.164 45.6058 127.862 49.6529 128.252C52.2623 128.536 56.5934 129.406 59.2915 130.258C67.2971 132.566 85.527 136.595 87.8346 136.595C88.9884 136.595 90.728 136.968 91.6865 137.554C92.6628 138.033 97.3845 138.885 102.195 139.471C110.2 140.429 111.354 140.429 115.313 138.707C118.685 137.163 120.23 135.637 122.537 131.607C134.022 111.283 134.217 111.194 156.388 114.07ZM443.7 152.411C443.7 153.174 443.31 153.849 442.742 153.849C442.262 153.849 442.067 153.174 442.351 152.411C442.742 151.648 443.132 150.973 443.31 150.973C443.505 150.973 443.7 151.648 443.7 152.411ZM409.477 159.6C409.761 160.168 409.37 160.843 408.518 161.127C406.672 161.89 405.625 161.127 406.584 159.689C407.347 158.357 408.696 158.357 409.477 159.6ZM127.951 167.641C129.584 167.943 134.306 168.6 138.548 169.079C142.791 169.665 150.796 170.712 156.388 171.582C161.979 172.345 169.878 173.392 174.121 173.872C178.274 174.351 181.931 175.114 182.321 175.593C182.606 175.984 185.126 176.463 187.718 176.658C193.611 176.942 196.877 177.617 196.877 178.575C196.877 179.623 190.327 182.214 183.866 183.652C179.144 184.806 175.86 184.806 166.506 183.936C160.151 183.368 154.08 182.605 152.909 182.214C151.861 181.93 148.968 181.451 146.643 181.167C137.288 180.209 132.957 179.623 132.087 179.144C131.022 178.469 114.159 176.658 110.307 176.747C108.567 176.854 106.065 177.333 104.609 177.901C98.059 180.386 100.083 173.499 107.218 168.99C111.177 166.399 112.135 166.203 118.295 166.594C122.058 166.878 126.407 167.357 127.951 167.641ZM450.925 171.102C448.422 173.872 438.499 178.575 433.582 179.339C428.186 180.102 419.506 178.185 420.181 176.374C420.749 174.937 423.837 173.978 430.689 173.304C433.387 173.02 439.174 171.866 443.7 170.712C448.227 169.558 452.096 168.795 452.292 168.901C452.469 169.079 451.901 170.037 450.925 171.102ZM116.378 180.209C120.141 180.972 124.863 182.214 126.975 183.084C129.105 183.847 131.608 184.415 132.478 184.522C135.46 184.522 142.897 188.25 142.897 189.687C142.897 190.451 141.246 192.368 139.329 194.001C126.407 204.349 118.792 215.479 110.2 236.762C105.568 248.158 101.911 253.341 99.7986 251.229C99.4081 250.838 99.1241 236.372 99.1241 219.029C99.3016 184.327 99.3016 184.415 105.763 180.581C109.242 178.38 108.177 178.469 116.378 180.209ZM169.683 187.291C171.813 187.486 170.943 189.208 167.961 190.752C166.417 191.604 165.068 192.847 165.068 193.628C165.068 195.243 160.435 198.794 154.453 201.776C148.382 204.829 138.264 211.645 134.217 215.373C128.235 220.946 124.472 223.147 123.318 221.994C121.774 220.467 124.579 215.674 131.803 207.225C137.395 200.711 142.507 196.308 152.536 189.492C156.974 186.528 156.778 186.528 169.683 187.291ZM456.339 228.792C455.842 230.052 455.842 232.058 456.232 233.407C457.297 236.851 459.232 264.169 459.037 272.707C458.93 276.63 459.126 283.535 459.41 288.044C460.475 301.943 461.06 318.131 461.54 346.976C461.824 362.224 462.214 379.478 462.409 385.318C462.8 394.14 462.498 396.163 461.149 397.885C459.8 399.518 459.232 399.696 457.972 398.844C455.558 397.015 455.167 394.335 454.794 373.247C454.599 362.135 454.12 347.083 453.818 339.894C453.534 332.705 453.055 317.652 452.86 306.434C452.664 295.233 452.292 285.736 451.99 285.346C451.706 284.867 451.901 281.991 452.292 278.831C452.771 275.76 452.771 272.707 452.38 272.228C450.925 270.4 450.925 239.638 452.38 235.804C453.25 233.585 453.144 232.928 451.99 232.254C450.747 231.579 450.836 231.1 452.576 229.094C455.274 226.023 457.492 225.828 456.339 228.792ZM408.802 241.253C409.867 243.561 411.021 251.424 411.216 257.548C411.305 261.968 408.323 266.37 405.039 266.761C402.927 267.045 402.341 266.37 400.513 261.968C399.359 259.181 398.383 255.826 398.383 254.673C398.383 253.43 398.01 251.708 397.424 250.75C395.294 246.827 400.992 239.159 406.104 239.159C406.974 239.159 408.217 240.117 408.802 241.253ZM300.044 346.018C300.044 346.887 299.174 347.455 297.63 347.455C295.89 347.455 295.411 347.083 295.802 346.018C296.192 345.254 297.257 344.58 298.216 344.58C299.174 344.58 300.044 345.254 300.044 346.018ZM289.731 357.999C290.405 358.106 289.624 358.78 288.187 359.544C285.098 361.177 284.033 360.786 285.009 358.39C285.382 357.431 286.163 357.041 287.121 357.431C287.991 357.715 289.145 357.999 289.731 357.999ZM326.084 397.299C326.084 398.453 322.8 400.175 320.581 400.175C319.037 400.086 319.126 399.891 321.167 398.258C323.564 396.252 326.084 395.773 326.084 397.299Z"
    fill="white"
  />
  <path
    d="M211.539 84.9229L201.599 88.6683L187.15 87.2305C168.529 85.2069 168.92 85.3134 158.997 83.4851C149.536 81.6745 149.057 81.7633 134.98 86.84L124.667 90.4789L119.076 88.757C103.065 83.6804 102.585 83.5916 90.9233 84.2484C78.8705 84.9229 65.38 86.9465 57.3745 89.1476C50.3275 91.1534 48.6944 93.745 47.9134 104.484C47.2388 113.874 46.5643 115.223 40.6001 118.578C35.9672 121.152 34.9021 123.655 34.3341 133.613C34.0323 138.122 33.1626 143.5 32.3993 145.506C31.4407 148.186 31.3342 149.624 32.0088 150.973C32.5945 152.02 33.1626 152.89 33.2691 152.89C33.3578 152.89 35.7719 152.216 38.5765 151.541C42.8189 150.387 44.0615 150.387 46.2803 151.452C49.0849 152.784 59.5933 155.571 66.7291 156.813C76.4565 158.446 78.0008 158.73 83.5922 159.973C86.7696 160.754 92.5563 161.801 96.4082 162.476C104.414 163.807 104.804 164.588 100.846 170.321C97.3845 175.309 94.2959 175.895 84.5508 173.783C80.3083 172.824 74.6281 171.67 71.93 171.191C69.2319 170.712 65.0783 169.753 62.7707 169.079C60.4453 168.511 56.984 167.641 55.1556 167.162C43.1917 164.588 36.3577 162.28 34.2276 160.452C32.0088 158.251 31.92 158.251 30.0917 160.168C28.4409 161.801 28.0504 163.718 27.7663 173.978C27.4823 180.581 27.0918 189.208 26.7013 193.149C25.654 207.136 25.3523 223.041 25.0682 283.731C24.873 332.705 25.0682 345.84 26.0268 348.893C26.8078 351.006 27.2871 353.508 27.2871 354.36C27.2871 355.319 27.6776 356.082 28.2456 356.082C28.7426 356.082 29.1154 355.319 29.1154 354.272C29.1154 353.313 30.1804 351.769 31.4407 351.006C33.5531 349.568 34.3341 349.568 39.9256 350.917C48.9784 353.118 70.1905 358.78 77.3262 360.875C80.8054 361.94 85.8111 363.271 88.4204 363.857C91.1185 364.532 93.6214 365.384 94.1006 365.774C94.6864 366.253 96.5147 366.626 98.343 366.626H101.627L99.8873 363.946C98.2543 361.656 98.059 358.958 97.775 340.657L97.3845 319.96L99.8873 317.368L102.301 314.688L104.219 318.415C105.284 320.528 107.023 325.036 108.177 328.48C109.331 332.03 111.07 335.864 112.224 337.107C113.289 338.261 115.792 342.095 117.922 345.538C121.383 351.396 124.667 355.035 134.98 364.62C139.507 368.934 139.897 369.981 137.111 371.614C132.957 374.206 134.501 375.164 145.294 376.797C150.992 377.561 157.826 379.673 160.435 381.395C166.807 385.513 179.819 388.193 192.067 387.909C196.007 387.82 204.687 388.584 211.344 389.631C218 390.59 229.379 391.743 236.603 391.939L249.81 392.507L252.028 389.826C253.377 388.193 256.945 386.099 260.992 384.554C264.756 383.117 269.389 381.004 271.306 379.762C273.24 378.608 277.199 376.318 279.986 374.685C290.796 368.366 306.7 347.757 310.464 335.296C312.185 329.35 314.032 322.551 315.185 317.084C315.469 315.841 315.274 314.883 314.706 314.883C313.534 314.883 310.748 323.119 310.464 327.717C310.268 329.634 309.878 331.178 309.487 331.178C309.008 331.178 308.724 331.657 308.724 332.137C308.724 334.142 304.375 337.87 301.482 338.349C296.867 339.219 295.713 337.781 295.89 331.657C296.086 328.782 295.997 326.385 295.713 326.385C295.518 326.385 294.364 328.391 293.299 330.876C287.121 344.686 280.181 355.905 276.134 358.39C275.371 358.78 273.826 360.218 272.761 361.549C269.389 365.384 260.708 371.614 259.359 371.241C258.578 370.94 260.992 367.78 265.43 363.183C269.477 359.064 274.11 353.597 275.743 351.112C280.66 343.923 285.577 330.699 286.056 323.51C286.252 320.048 286.252 318.131 285.968 319.196C285.382 321.291 285.009 322.249 280.855 331.462C279.222 335.012 277.873 338.261 277.873 338.829C277.873 341.136 268.998 354.556 265.341 357.715C263.992 358.869 261.862 359.916 260.602 359.916C258.578 359.916 258.401 359.632 258.969 356.863C259.253 355.124 259.927 353.597 260.318 353.207C260.708 352.923 261.862 351.006 262.927 348.893C263.992 346.799 265.341 344.402 266.016 343.621C266.584 342.858 267.365 341.047 267.56 339.698C267.844 338.349 268.714 335.296 269.477 332.989C272.087 325.427 272.282 322.924 270.631 321.593C269.389 320.528 269.193 320.723 269.193 322.551C269.193 325.604 263.691 341.047 260.797 346.408C251.638 362.899 243.348 368.845 239.408 361.656C238.059 359.26 238.059 358.78 239.976 355.425C241.041 353.402 242.479 350.047 243.153 347.935C243.828 345.84 244.697 343.621 245.088 343.142C246.437 341.331 249.916 323.989 250.2 317.084C250.591 310.179 249.81 307.215 247.786 307.215C247.023 307.215 246.916 307.499 247.591 308.173C248.745 309.309 246.827 327.149 245.088 332.137C239.496 347.562 235.254 354.076 225.331 362.703C215.675 371.046 207.013 374.596 192.635 376.318C183.777 377.277 181.061 376.993 167.766 373.531C151.666 369.324 132.566 353.792 121.49 335.775C119.466 332.509 117.816 329.154 117.816 328.302C117.816 327.521 117.141 325.906 116.378 324.752C115.597 323.599 113.378 318.131 111.55 312.487C107.307 299.83 106.633 290.92 109.437 284.867C110.875 281.902 111.354 278.547 111.461 272.228C111.656 262.927 112.224 261.205 117.816 254.389C127.561 242.407 132.194 238.679 143.572 233.407C158.802 226.307 178.754 225.828 192.741 232.058C194.374 232.822 196.398 233.407 197.268 233.407C198.137 233.407 198.812 233.78 198.812 234.259C198.812 235.502 210.563 242.034 211.539 241.36C212.693 240.685 210.474 238.2 208.841 238.2C208.06 238.2 207.492 237.525 207.492 236.762C207.492 235.981 206.906 235.324 206.338 235.324C204.971 235.324 194.765 230.425 192.83 228.899C190.718 227.177 170.553 222.384 169.008 223.236C168.724 223.431 165.458 223.911 161.695 224.195C153.21 224.958 148.489 225.739 147.228 226.698C146.749 227.07 145.205 227.745 143.856 228.135C140.572 229.094 132.868 233.887 127.17 238.484C122.537 242.212 116.857 249.88 115.029 254.673C114.052 257.175 108.656 260.53 107.023 259.572C103.935 257.939 109.632 245.087 117.532 235.804C126.78 224.78 143.749 214.716 158.323 211.734C172.292 208.769 197.853 209.923 205.362 213.846C206.817 214.609 208.93 215.195 209.995 215.195C211.149 215.195 212.302 215.852 212.693 216.633C212.977 217.396 214.042 218.071 215.107 218.071C216.172 218.071 217.415 218.834 218 219.686C218.675 221.035 219.243 221.124 220.024 220.361C220.698 219.686 220.787 219.029 220.308 218.728C215.302 215.763 206.338 211.361 205.078 211.361C204.297 211.361 203.622 210.97 203.622 210.491C203.622 210.012 201.989 209.444 200.054 209.142C198.031 208.858 193.114 208.184 189.173 207.527C184.824 206.852 177.209 206.568 170.18 206.941C158.216 207.42 154.755 206.568 159.956 204.545C161.393 203.977 163.524 203.018 164.589 202.539C168.724 200.711 180.298 198.225 185.801 198.03C195.634 197.746 210.758 200.515 217.326 203.781C218.284 204.261 219.829 204.651 220.787 204.651C221.763 204.651 223.397 205.308 224.462 206.089C227.248 208.184 227.923 207.811 227.248 204.74C226.183 199.663 232.077 199.557 239.496 204.545C241.911 206.178 244.325 207.527 244.697 207.527C246.348 207.527 257.141 215.284 260.034 218.55C263.123 221.905 268.235 223.999 268.235 221.905C268.235 221.23 267.56 220.946 266.69 221.319C265.625 221.71 265.235 221.514 265.625 220.556C265.909 219.793 264.756 217.875 262.732 216.154L259.359 213.083L261.294 211.059C264.276 208.184 270.631 208.379 275.548 211.538C277.767 212.976 279.79 213.935 280.092 213.651C280.376 213.367 280.856 214.13 281.246 215.373C282.009 217.591 283.358 219.029 285.009 219.029C285.577 219.029 285.204 218.444 284.335 217.769C283.465 217.201 282.489 215.479 282.205 214.13C281.14 209.923 283.554 208.965 295.606 208.858C301.482 208.769 309.203 208.663 312.86 208.574C316.428 208.485 319.321 208.095 319.321 207.704C319.321 206.568 306.594 203.586 300.133 203.107C297.257 202.912 290.299 202.148 284.707 201.385C279.027 200.622 269.282 199.273 262.927 198.314C256.555 197.462 250.591 196.397 249.614 195.829C248.265 195.155 247.307 195.439 245.372 197.356C242.283 200.427 237.082 200.711 231.775 197.941C228.509 196.202 225.225 195.35 215.675 193.522C214.131 193.238 205.646 192.67 196.877 192.368C187.327 191.995 180.972 191.32 180.972 190.752C180.972 190.167 183.582 188.729 186.759 187.398C191.96 185.285 193.788 185.001 204.599 185.09C214.237 185.179 217.894 185.569 222.917 187.291C226.29 188.445 231.296 189.599 233.994 189.883C238.147 190.362 239.017 190.273 239.017 188.924C239.017 188.054 238.627 187.398 238.147 187.398C237.757 187.398 237.366 186.918 237.366 186.439C237.366 184.806 239.496 185.001 270.152 189.403C283.163 191.232 308.138 195.155 313.055 196.113C323.191 198.119 325.019 198.705 329.457 201.101C334.747 204.065 336.486 204.261 337.356 202.148C338.314 199.557 342.078 198.9 349.497 199.859C353.367 200.338 363.574 201.19 372.36 201.776C381.129 202.344 393.271 203.213 399.359 203.693C405.43 204.172 414.394 204.829 419.116 205.13C436.28 206.267 438.215 206.462 438.979 207.225C439.369 207.616 440.044 209.817 440.416 212.018C441.002 215.958 440.913 216.154 438.02 217.396C435.89 218.355 433.103 218.444 428.47 217.964C414.784 216.438 398.578 215 392.987 214.716C389.809 214.609 385.655 214.13 383.827 213.757C381.999 213.367 378.147 212.888 375.254 212.692C367.816 212.213 350.846 210.686 343.728 209.817C338.811 209.337 337.64 209.444 337.64 210.491C337.445 231.49 337.64 246.348 338.03 262.643C339.184 306.824 339.575 324.362 340.054 355.124C340.338 372.768 340.835 388.974 341.119 391.069C341.51 394.14 341.208 395.489 339.575 397.601C334.747 403.725 327.717 404.204 326.847 398.453C326.563 396.341 326.936 395.205 328.197 394.246C329.83 393.181 330.025 391.743 329.83 383.791C329.741 378.714 330.025 374.01 330.327 373.442C330.699 372.857 330.611 372.377 330.025 372.377C329.546 372.377 328.782 372.768 328.481 373.336C328.197 373.815 326.847 374.294 325.587 374.294C322.215 374.294 321.931 375.448 323.67 382.069C324.913 386.862 325.019 388.495 324.043 390.785C322.605 394.335 318.647 396.341 313.162 396.341C310.748 396.341 308.529 396.82 308.245 397.406C307.854 397.974 306.984 398.169 306.31 397.885C305.635 397.69 304.766 398.08 304.482 398.737C304.198 399.518 303.328 399.891 302.547 399.607C301.784 399.323 300.434 399.518 299.565 399.997C298.02 400.761 301.003 401.524 314.99 403.725C316.055 403.832 318.451 404.311 320.297 404.595C322.126 404.968 324.433 405.163 325.303 405.074C326.173 404.968 328.676 405.358 330.699 405.837C332.829 406.405 340.054 407.364 346.906 407.843C353.74 408.429 362.136 409.281 365.615 409.76C369.076 410.346 374.668 410.914 378.147 411.109C381.608 411.393 385.087 411.784 385.851 412.068C386.632 412.352 392.117 413.026 397.903 413.594C421.618 415.813 435.606 417.535 438.215 418.494C441.765 420.02 441.765 423.57 438.109 425.487C435.322 426.925 424.512 427.795 422.879 426.73C422.293 426.446 419.79 425.967 417.092 425.576C414.483 425.292 410.631 424.813 408.518 424.529C406.388 424.245 402.927 423.854 400.797 423.57C398.684 423.375 393.466 422.701 389.223 422.044C384.981 421.458 378.236 420.89 374.277 420.695C370.337 420.499 364.248 419.931 360.787 419.452C357.308 418.973 347.776 417.819 339.575 416.949C331.374 416.097 321.842 414.855 318.363 414.18C314.884 413.417 311.032 412.831 309.683 412.831C308.334 412.938 304.766 412.157 301.677 411.305C298.606 410.435 294.169 409.76 291.843 409.76C289.536 409.76 287.317 409.281 287.033 408.802C286.731 408.234 284.423 407.843 281.921 407.843C279.418 407.843 275.264 407.186 272.655 406.405C269.957 405.642 264.756 404.684 261.099 404.488C257.336 404.204 252.809 403.441 251.07 402.962C249.33 402.394 247.591 402.092 247.395 402.394C247.111 402.678 244.413 402.287 241.325 401.613C238.343 400.849 233.035 400.086 229.663 399.802C226.183 399.518 219.545 398.648 214.716 397.779C205.841 396.341 199.38 395.382 194.853 395.01C193.504 394.814 191.96 394.424 191.392 394.14C190.895 393.856 187.434 393.288 183.777 392.986C180.103 392.702 175.381 391.85 173.251 391.175C171.139 390.412 166.133 389.631 162.174 389.258C158.216 388.868 153.69 388.193 152.057 387.714C150.512 387.235 145.879 386.667 141.726 386.383C137.679 386.187 132.957 385.513 131.129 384.945C129.389 384.359 121.685 382.833 113.964 381.395C99.4968 378.803 88.8997 376.513 85.527 375.164C84.462 374.774 80.3083 373.726 76.3677 372.768C72.4093 371.898 68.3621 370.762 67.4924 370.372C66.6226 369.892 64.1197 369.324 61.9009 369.023C59.6821 368.738 56.5934 367.886 55.1556 367.105C53.6113 366.342 51.1972 365.668 49.8482 365.668C46.6708 365.668 36.4464 362.135 36.0559 360.875C35.8607 360.307 35.0086 359.916 34.1388 359.916C33.3578 359.916 31.8135 359.153 30.7662 358.195C28.8314 356.668 28.8314 356.668 29.4172 358.958C29.7899 360.307 30.0917 361.833 30.0917 362.419C30.0917 363.271 36.3577 365.668 39.7303 366.147C40.7776 366.342 45.1265 367.78 46.9548 368.543C49.9369 369.892 59.8773 372.377 65.2735 373.247C67.9716 373.726 72.0188 374.774 74.4329 375.644C76.847 376.513 80.8941 377.472 83.397 377.756C86.0063 378.04 89.1837 378.91 90.444 379.762C91.6865 380.525 92.7516 380.827 92.7516 380.436C92.7516 379.957 93.1421 380.046 93.5326 380.525C94.3846 381.785 113.768 386.471 121.188 387.341C131.803 388.495 133.738 388.673 136.613 389.631C138.264 390.11 142.791 390.785 146.749 391.069C150.69 391.459 156.778 392.134 160.24 392.702C163.719 393.181 168.92 393.767 171.813 393.944C174.706 394.051 177.884 394.53 178.86 394.903C179.712 395.294 181.168 395.294 182.037 395.01C182.801 394.725 183.28 394.814 182.996 395.294C182.712 395.684 185.126 396.341 188.499 396.731C194.658 397.299 204.971 399.128 207.492 399.997C208.255 400.175 210.865 400.565 213.279 400.761C220.894 401.435 230.337 402.767 231.402 403.441C231.97 403.725 236.017 404.488 240.455 404.968C247.981 405.837 253.377 406.796 263.407 408.802C265.821 409.388 269.282 409.956 271.128 410.24C272.956 410.435 278.157 411.305 282.684 412.157C287.228 412.938 294.257 414.074 298.5 414.553C302.653 415.139 306.416 415.707 306.789 415.991C309.292 417.535 339.291 420.89 359.331 421.849C366.289 422.221 372.36 422.807 372.928 423.286C373.514 423.766 379.585 424.529 386.437 425.097C393.271 425.576 400.406 426.446 402.252 427.014C404.081 427.493 411.021 428.363 417.678 428.842C424.316 429.41 430.973 430.191 432.517 430.671C437.345 432.002 444.765 430.369 450.552 426.73C453.339 424.919 459.232 421.653 463.474 419.452C482.272 409.76 484.189 407.754 484.189 397.406C484.189 394.246 484.864 389.542 485.734 387.057C486.994 383.596 487.083 380.827 486.604 374.401C486.213 369.892 485.734 362.029 485.539 357.041C485.255 352.071 484.971 346.018 484.775 343.621C483.817 333.184 482.84 294.452 483.142 282.293C483.32 276.914 482.361 252.578 481.687 245.868C481.296 241.36 481.012 232.254 481.207 225.633C481.491 212.604 480.622 209.249 476.29 206.178C472.811 203.693 470.308 204.349 461.06 209.923C451.422 215.763 447.552 217.201 447.552 215C447.552 214.13 450.836 211.45 454.883 208.858C465.303 202.255 468.959 198.598 468.569 195.439C468.391 194.001 467.61 192.368 466.741 191.888C465.108 190.841 464.433 191.232 451.794 199.663C446.984 202.912 443.132 204.349 442.067 203.302C441.091 202.344 443.807 199.859 452.38 194.001C462.498 187.202 463.474 185.09 462.019 173.872C461.54 169.949 460.865 166.115 460.581 165.351C459.995 163.718 454.209 159.6 452.664 159.6C449.966 159.6 449.008 156.334 449.292 148.666C449.576 141.104 449.576 140.802 446.398 137.27C442.83 133.24 436.174 130.933 416.701 127.01C407.844 125.181 404.56 124.986 390.377 125.377L374.277 125.856L371.384 121.738C369.751 119.43 368.491 117.14 368.491 116.555C368.491 115.987 366.858 114.549 364.923 113.306C361.461 111.087 358.089 110.129 351.627 109.366C350.083 109.17 344.882 108.318 340.054 107.555C335.332 106.685 328.001 105.815 323.865 105.531C319.623 105.159 315.469 104.484 314.511 104.005C313.534 103.419 311.227 103.046 309.292 103.046C305.245 103.046 302.937 102.283 302.937 100.845C302.937 100.259 302.068 97.9697 301.003 95.7508C298.216 89.9996 292.819 87.6033 283.944 88.0825C279.897 88.3843 275.548 89.3428 272.655 90.5854C268.324 92.5024 258.969 93.461 256.75 92.1119C256.466 91.9167 254.158 91.4374 251.833 91.0646C245.478 90.1949 242.78 88.9523 240.845 85.7927C238.911 82.5266 235.254 81.1953 232.272 82.8106C225.225 86.3607 218.568 90.5854 218.089 91.8279C217.415 93.8337 210.758 98.2537 208.45 98.2537C203.338 98.2537 208.166 92.3072 218 86.4672C223.113 83.4851 225.331 81 222.722 81C222.048 81.0888 217.024 82.8106 211.539 84.9229ZM156.477 88.5618L158.802 90.3901L155.127 91.8279C151.755 93.2657 145.294 93.0705 144.335 91.5439C144.14 91.1534 144.619 89.9996 145.4 88.8636C147.317 86.1654 153.299 85.9879 156.477 88.5618ZM79.2611 88.0825C79.2611 88.9523 70.3857 93.3545 67.8829 93.8337C66.4273 94.029 63.7292 94.7035 61.9009 95.2715C60.0726 95.8573 57.6585 96.3366 56.5934 96.3366C52.9368 96.3366 58.049 92.6977 65.2735 90.1949C71.149 88.189 79.2611 86.9465 79.2611 88.0825ZM180.777 90.3014C182.907 90.7806 183.191 91.0646 182.233 92.2184C179.233 95.8573 172.204 97.4904 171.139 94.7923C170.375 92.8752 174.618 88.473 176.641 89.1476C177.405 89.5203 179.233 89.9996 180.777 90.3014ZM231.597 89.0411C231.597 89.5203 225.331 93.461 224.462 93.461C222.917 93.461 224.16 91.5439 226.574 90.3014C229.183 88.8636 231.597 88.2778 231.597 89.0411ZM125.342 92.2184C129.779 93.461 131.324 94.313 131.324 95.6621C131.324 98.7329 128.626 103.81 126.691 104.378C124.383 105.159 122.253 109.845 123.034 112.436C123.886 114.922 121.383 116.945 119.076 115.596C118.117 115.028 117.816 114.549 118.49 114.549C119.75 114.549 119.271 112.152 117.532 109.951C116.271 108.407 114.922 110.129 114.922 113.306C114.922 114.549 114.443 115.507 113.875 115.507C113.378 115.507 113.094 115.88 113.378 116.359C114.159 117.62 111.461 119.537 109.437 119.146C108.088 118.862 107.786 117.992 107.982 114.07C108.177 110.04 108.763 108.798 111.461 106.401C114.443 103.721 114.638 103.33 113.573 100.65C113.005 99.0169 111.94 96.7094 111.177 95.378C110.396 94.029 109.721 92.2184 109.632 91.2599C109.437 89.7156 110.005 89.6268 114.354 89.9996C117.052 90.3014 121.969 91.3486 125.342 92.2184ZM287.796 91.9167C290.121 93.6562 290.015 93.9402 285.382 96.6206C281.051 99.1057 279.506 99.4962 274.11 99.3009C271.217 99.2122 271.022 99.0169 272.175 97.5791C274.305 95.1828 282.009 90.5854 284.139 90.6741C285.204 90.6741 286.837 91.2599 287.796 91.9167ZM203.25 95.4668C204.492 96.9046 204.971 98.9282 205.078 102.851V108.212L210.865 109.472C214.042 110.04 218.675 110.608 221.178 110.715C223.681 110.715 226.68 111.087 227.923 111.567C229.183 112.046 234.1 112.916 238.822 113.59C243.65 114.158 249.419 115.117 251.833 115.703C254.247 116.271 257.726 116.839 259.555 117.034C261.383 117.229 265.714 117.797 269.193 118.276C277.004 119.537 281.051 118.667 287.707 114.265C290.601 112.348 294.932 109.845 297.435 108.798C301.588 106.969 302.263 106.88 308.919 108.212C316.055 109.65 325.019 110.91 341.51 112.72C346.515 113.2 351.911 113.963 353.367 114.354C356.154 115.028 356.154 115.117 354.326 117.14C352.781 119.057 344.776 123.655 328.96 132.086C324.043 134.678 323.191 134.767 316.428 134.199C312.487 133.915 308.813 133.24 308.245 132.761C307.766 132.37 303.612 131.518 299.085 130.933C294.541 130.365 288.098 129.495 284.619 129.016C281.14 128.536 274.59 127.684 269.957 127.099C265.341 126.53 259.448 125.572 256.945 125.093C254.442 124.507 246.916 123.176 240.26 122.111C233.621 121.063 227.16 120.016 225.811 119.821C224.462 119.537 220.113 118.951 216.172 118.472C206.143 117.318 194.853 115.596 194.09 115.117C193.416 114.638 179.535 112.632 173.748 112.152C166.222 111.478 151.95 109.65 150.406 109.17C145.01 107.555 152.341 104.005 161.021 104.005C168.156 104.005 172.878 102.656 185.801 96.9046C194.853 92.8752 200.445 92.3959 203.25 95.4668ZM89.8582 95.8573C91.4025 96.6206 93.1421 98.0584 93.6214 99.0169C94.5799 100.845 94.2959 118.099 93.3373 119.146C92.4676 119.909 87.9411 120.016 87.9411 119.146C87.9411 118.756 88.4204 118.188 88.8997 117.904C89.4677 117.513 89.663 116.839 89.3789 116.359C88.9884 115.88 89.3789 115.507 90.0535 115.507C91.012 115.507 91.012 115.312 89.9647 114.638C89.2902 114.158 88.8997 113.395 89.2902 112.827C89.5742 112.348 89.2902 111.389 88.5092 110.803C86.0063 108.691 84.5508 112.632 85.1365 119.821C85.3318 121.259 88.3139 125.093 89.3789 125.093C89.4677 125.093 94.2959 125.945 100.083 127.01C105.869 128.057 112.224 128.927 114.248 128.927C117.62 128.927 117.816 129.122 116.857 130.844C115.313 133.613 108.567 136.79 105.479 136.116C104.041 135.832 101.822 135.353 100.473 135.051C99.1241 134.767 97.3845 134.483 96.6035 134.483C95.1657 134.483 85.0478 132.175 72.4981 129.211C66.6226 127.773 61.2264 126.726 53.3273 125.572C51.4813 125.288 49.1737 124.507 48.1086 124.028C46.2803 122.98 46.2803 122.892 48.5879 120.584C51.5878 117.62 55.6349 117.14 59.3981 119.341C61.0311 120.193 62.8594 120.779 63.534 120.584C64.1197 120.389 65.9481 120.868 67.5811 121.631C70.581 123.264 76.1724 123.655 77.8055 122.412C78.8705 121.631 78.9593 118.276 77.912 116.661C77.5215 115.987 75.9772 116.359 73.4743 117.513C69.9064 119.235 68.9302 119.341 63.534 118.276C55.6349 116.839 51.286 113.59 51.286 109.366C51.286 107.253 52.067 105.531 53.7001 104.005C55.9189 101.893 56.5934 101.804 60.7471 102.656C66.0546 103.721 68.6462 103.419 68.6462 101.697C68.6462 100.064 72.4093 96.7094 75.3914 95.4668C79.0658 94.029 86.6808 94.2243 89.8582 95.8573ZM149.927 95.094C151.08 96.1413 155.607 96.2301 161.695 95.4668C167.961 94.6148 169.115 94.7923 168.334 96.7094C167.482 99.0169 160.63 101.413 156.672 100.845C152.909 100.259 143.856 101.893 140.181 103.898C137.288 105.443 135.939 104.484 136.72 101.413C137.679 97.5791 141.832 94.5083 145.879 94.4195C147.814 94.4195 149.642 94.7035 149.927 95.094ZM258.49 95.7508C260.904 96.6206 262.058 97.7744 262.821 100.259C263.691 102.851 264.472 103.614 266.69 103.81C268.519 104.005 269.761 103.614 270.347 102.656C271.607 100.543 273.72 100.739 275.069 103.135C276.045 105.052 275.939 105.159 273.72 104.768C271.696 104.378 271.412 104.679 271.607 106.969C271.891 110.431 271.306 111.194 267.17 112.916C264.081 114.158 262.821 114.158 254.638 112.525C249.614 111.567 245.478 110.715 245.372 110.715C244.413 110.608 245.372 107.644 246.526 107.253C247.307 106.88 247.981 105.727 247.981 104.484C247.981 101.325 242.976 99.585 240.845 101.981C239.976 102.94 239.301 104.378 239.301 105.247C239.301 107.839 233.994 109.756 228.402 109.17C222.811 108.602 218.089 107.076 218.089 105.815C218.089 104.963 229.663 98.0584 234.775 95.8573C238.627 94.1355 253.963 94.1355 258.49 95.7508ZM104.893 109.082C106.26 112.152 104.414 117.513 101.432 119.057C100.171 119.625 98.7336 120.016 98.343 119.714C96.7987 118.756 97.5798 111.957 99.6033 109.366C102.017 106.295 103.544 106.206 104.893 109.082ZM128.91 111.389C128.43 113.395 128.04 113.59 127.17 112.632C126.3 111.673 126.3 111.283 127.277 110.999C127.845 110.715 128.43 109.65 128.519 108.514C128.519 107.36 128.821 106.969 129.105 107.644C129.389 108.318 129.3 110.04 128.91 111.389ZM156.388 114.07C169.008 115.596 178.274 117.14 179.339 117.708C179.712 117.992 182.801 118.472 186.28 118.756C189.741 119.146 204.013 121.347 218.089 123.655C246.721 128.252 256.377 129.69 268.235 130.844C272.761 131.323 279.702 132.37 283.66 133.134C287.601 134.004 294.541 135.051 299.085 135.637C317.404 137.838 323.28 139.275 326.936 142.151C328.782 143.678 330.611 145.701 330.895 146.749C331.374 148.577 334.658 153.849 335.812 154.807C336.096 155.091 336.965 156.92 337.551 158.837C338.226 160.843 340.054 163.434 341.598 164.765C343.143 166.115 344.403 167.552 344.403 168.032C344.403 169.185 347.296 169.949 349.125 169.381C349.994 169.079 349.604 168.316 347.669 166.789L344.882 164.588L347.296 161.996C348.645 160.647 351.521 159.014 353.74 158.357C357.308 157.399 357.893 156.92 357.893 154.701C357.893 153.263 358.568 150.867 359.331 149.429C360.982 146.18 361.177 143.678 359.828 142.826C359.331 142.542 358.852 141.193 358.852 139.95C358.852 135.051 372.928 129.885 384.892 130.453C405.625 131.323 414.962 131.998 419.116 132.761C421.814 133.24 426.251 133.915 428.949 134.199C433.192 134.767 434.346 135.353 435.695 137.554C436.564 139.08 438.393 140.802 439.742 141.477C443.895 143.589 444.375 144.157 443.895 146.66C443.611 148.186 442.635 149.251 441.286 149.624C438.588 150.299 436.955 153.849 436.76 159.316C436.671 161.996 436.085 163.523 435.127 163.913C434.257 164.197 433.476 164.002 433.281 163.523C433.103 162.955 432.322 162.476 431.559 162.476C430.689 162.476 430.298 162.848 430.689 163.328C431.452 164.677 424.512 165.83 423.269 164.588C422.488 163.807 422.595 162.671 423.447 160.452C424.618 157.772 424.512 157.292 423.163 156.245C422.293 155.571 421.53 154.523 421.53 153.849C421.53 152.89 421.139 152.979 419.879 154.044C418.92 154.896 416.613 155.482 414.784 155.375C412.938 155.287 410.347 155.766 408.998 156.44C407.063 157.399 406.3 157.399 404.453 156.245C402.625 155.003 401.951 155.003 398.968 156.245C395.791 157.576 395.489 157.576 394.14 155.571C391.637 152.127 389.809 154.807 389.898 161.606C390.093 168.032 391.353 169.753 395.117 168.795C396.75 168.316 399.252 168.901 402.732 170.623C405.625 171.954 408.412 173.02 408.998 173.02C409.672 173.02 409.956 173.588 409.761 174.156C409.477 175.025 406.868 175.416 400.708 175.309C387.981 175.114 373.035 173.978 372.36 173.197C372.058 172.824 370.141 172.54 368.011 172.434C360.876 172.238 356.828 171.759 356.349 170.907C356.065 170.517 354.61 170.144 352.976 170.144C349.125 170.144 349.32 172.629 353.367 174.262C356.154 175.505 372.058 177.333 387.306 178.291C390.484 178.575 394.62 178.948 396.466 179.144C399.927 179.729 419.79 181.256 424.902 181.451C430.103 181.646 436.476 182.782 437.718 183.741C438.979 184.895 439.369 198.598 438.109 200.515C436.76 202.628 432.997 203.302 427.991 202.539C425.186 202.06 418.441 201.474 412.85 201.19C407.258 200.995 401.187 200.427 399.359 200.143C397.513 199.752 394.247 199.468 392.117 199.379C384.502 198.989 358.568 196.876 357.982 196.504C357.609 196.308 353.367 195.918 348.539 195.634C343.728 195.35 336.096 194.675 331.676 194.196C327.238 193.628 321.061 193.042 317.883 192.758C314.706 192.563 310.943 191.888 309.487 191.32C306.896 190.362 300.133 189.315 284.139 187.291C279.897 186.812 274.305 185.96 271.607 185.374C268.998 184.895 265.537 184.327 263.886 184.131C262.342 183.936 258.401 183.262 255.206 182.694C252.028 182.126 247.023 181.345 244.129 181.061C241.236 180.865 234.668 179.907 229.663 179.144C212.018 176.374 203.054 175.025 194.463 173.978C189.741 173.392 181.647 172.238 176.641 171.475C171.618 170.712 165.068 169.842 162.174 169.558C157.453 169.079 152.536 168.316 130.845 164.286C125.147 163.239 120.23 162.671 110.591 162.085C107.982 161.996 105.088 161.606 104.325 161.322C103.544 161.038 99.6033 160.275 95.6449 159.6C91.6865 158.925 87.8346 158.056 86.9649 157.683C84.746 156.529 72.1253 153.849 68.9302 153.849C67.4036 153.849 65.7528 153.565 65.38 153.174C65.0783 152.784 64.2085 152.411 63.534 152.216C61.7056 151.825 45.1265 149.145 43.9727 149.056C43.4934 149.056 42.1266 148.47 41.1681 147.707C39.535 146.553 39.3398 145.311 39.535 139.364C39.7303 133.045 40.1031 131.998 42.3219 130.081C44.452 128.164 45.6058 127.862 49.6529 128.252C52.2623 128.536 56.5934 129.406 59.2915 130.258C67.2971 132.566 85.527 136.595 87.8346 136.595C88.9884 136.595 90.728 136.968 91.6865 137.554C92.6628 138.033 97.3845 138.885 102.195 139.471C110.2 140.429 111.354 140.429 115.313 138.707C118.685 137.163 120.23 135.637 122.537 131.607C134.022 111.283 134.217 111.194 156.388 114.07ZM443.7 152.411C443.7 153.174 443.31 153.849 442.742 153.849C442.262 153.849 442.067 153.174 442.351 152.411C442.742 151.648 443.132 150.973 443.31 150.973C443.505 150.973 443.7 151.648 443.7 152.411ZM409.477 159.6C409.761 160.168 409.37 160.843 408.518 161.127C406.672 161.89 405.625 161.127 406.584 159.689C407.347 158.357 408.696 158.357 409.477 159.6ZM127.951 167.641C129.584 167.943 134.306 168.6 138.548 169.079C142.791 169.665 150.796 170.712 156.388 171.582C161.979 172.345 169.878 173.392 174.121 173.872C178.274 174.351 181.931 175.114 182.321 175.593C182.606 175.984 185.126 176.463 187.718 176.658C193.611 176.942 196.877 177.617 196.877 178.575C196.877 179.623 190.327 182.214 183.866 183.652C179.144 184.806 175.86 184.806 166.506 183.936C160.151 183.368 154.08 182.605 152.909 182.214C151.861 181.93 148.968 181.451 146.643 181.167C137.288 180.209 132.957 179.623 132.087 179.144C131.022 178.469 114.159 176.658 110.307 176.747C108.567 176.854 106.065 177.333 104.609 177.901C98.059 180.386 100.083 173.499 107.218 168.99C111.177 166.399 112.135 166.203 118.295 166.594C122.058 166.878 126.407 167.357 127.951 167.641ZM450.925 171.102C448.422 173.872 438.499 178.575 433.582 179.339C428.186 180.102 419.506 178.185 420.181 176.374C420.749 174.937 423.837 173.978 430.689 173.304C433.387 173.02 439.174 171.866 443.7 170.712C448.227 169.558 452.096 168.795 452.292 168.901C452.469 169.079 451.901 170.037 450.925 171.102ZM116.378 180.209C120.141 180.972 124.863 182.214 126.975 183.084C129.105 183.847 131.608 184.415 132.478 184.522C135.46 184.522 142.897 188.25 142.897 189.687C142.897 190.451 141.246 192.368 139.329 194.001C126.407 204.349 118.792 215.479 110.2 236.762C105.568 248.158 101.911 253.341 99.7986 251.229C99.4081 250.838 99.1241 236.372 99.1241 219.029C99.3016 184.327 99.3016 184.415 105.763 180.581C109.242 178.38 108.177 178.469 116.378 180.209ZM169.683 187.291C171.813 187.486 170.943 189.208 167.961 190.752C166.417 191.604 165.068 192.847 165.068 193.628C165.068 195.243 160.435 198.794 154.453 201.776C148.382 204.829 138.264 211.645 134.217 215.373C128.235 220.946 124.472 223.147 123.318 221.994C121.774 220.467 124.579 215.674 131.803 207.225C137.395 200.711 142.507 196.308 152.536 189.492C156.974 186.528 156.778 186.528 169.683 187.291ZM456.339 228.792C455.842 230.052 455.842 232.058 456.232 233.407C457.297 236.851 459.232 264.169 459.037 272.707C458.93 276.63 459.126 283.535 459.41 288.044C460.475 301.943 461.06 318.131 461.54 346.976C461.824 362.224 462.214 379.478 462.409 385.318C462.8 394.14 462.498 396.163 461.149 397.885C459.8 399.518 459.232 399.696 457.972 398.844C455.558 397.015 455.167 394.335 454.794 373.247C454.599 362.135 454.12 347.083 453.818 339.894C453.534 332.705 453.055 317.652 452.86 306.434C452.664 295.233 452.292 285.736 451.99 285.346C451.706 284.867 451.901 281.991 452.292 278.831C452.771 275.76 452.771 272.707 452.38 272.228C450.925 270.4 450.925 239.638 452.38 235.804C453.25 233.585 453.144 232.928 451.99 232.254C450.747 231.579 450.836 231.1 452.576 229.094C455.274 226.023 457.492 225.828 456.339 228.792ZM408.802 241.253C409.867 243.561 411.021 251.424 411.216 257.548C411.305 261.968 408.323 266.37 405.039 266.761C402.927 267.045 402.341 266.37 400.513 261.968C399.359 259.181 398.383 255.826 398.383 254.673C398.383 253.43 398.01 251.708 397.424 250.75C395.294 246.827 400.992 239.159 406.104 239.159C406.974 239.159 408.217 240.117 408.802 241.253ZM300.044 346.018C300.044 346.887 299.174 347.455 297.63 347.455C295.89 347.455 295.411 347.083 295.802 346.018C296.192 345.254 297.257 344.58 298.216 344.58C299.174 344.58 300.044 345.254 300.044 346.018ZM289.731 357.999C290.405 358.106 289.624 358.78 288.187 359.544C285.098 361.177 284.033 360.786 285.009 358.39C285.382 357.431 286.163 357.041 287.121 357.431C287.991 357.715 289.145 357.999 289.731 357.999ZM326.084 397.299C326.084 398.453 322.8 400.175 320.581 400.175C319.037 400.086 319.126 399.891 321.167 398.258C323.564 396.252 326.084 395.773 326.084 397.299Z"
    fill="white"
  />
  <path
    d="M146.074 124.809C145.595 125.767 145.293 132.477 145.293 139.666C145.293 154.612 145.595 155.18 152.535 156.139C161.588 157.292 169.594 158.641 176.144 160.168C185.8 162.369 188.498 162.671 190.043 161.606C191.48 160.647 193.22 145.222 191.871 145.222C190.717 145.222 189.173 148.772 189.173 151.346C189.173 152.784 188.108 154.523 186.564 155.766C184.256 157.576 182.996 157.878 177.209 157.399C170.552 156.92 168.05 155.571 169.984 153.263C170.464 152.606 172.292 151.825 174.12 151.541C175.86 151.257 179.907 149.251 183.191 147.139C186.475 145.027 189.457 143.305 190.043 143.305C191.196 143.305 191.676 141.672 191.96 136.489C192.066 133.329 191.676 131.696 190.415 130.649C188.978 129.406 178.753 127.294 165.547 125.572C164.002 125.377 160.346 124.702 157.452 124.223C149.926 122.696 146.944 122.892 146.074 124.809ZM163.523 131.128C164.872 132.175 165.156 133.134 164.588 135.53C163.133 142.151 155.802 144.831 153.104 139.666C151.47 136.4 152.535 133.329 156.103 131.412C159.476 129.601 161.304 129.495 163.523 131.128Z"
    fill="white"
  />
  <path
    d="M384.413 133.046C374.473 135.531 370.905 137.075 370.621 139.276C370.231 141.761 372.449 142.063 376.213 139.951C377.562 139.188 381.715 138.123 385.372 137.448C391.443 136.401 392.117 136.117 392.117 134.004C392.117 131.519 390.875 131.413 384.413 133.046Z"
    fill="white"
  />
  <path
    d="M268.039 143.021C266.779 144.459 266.584 147.032 266.974 157.204C267.453 174.635 267.169 174.351 285.577 176.374C288.861 176.747 291.648 177.706 292.908 178.859C294.364 180.208 295.127 180.386 295.89 179.623C296.671 178.859 298.304 178.859 301.872 179.729C308.44 181.256 311.617 180.492 311.617 177.226C311.617 174.155 309.594 173.499 306.026 175.309C303.896 176.463 302.351 176.552 299.955 175.895C298.109 175.309 295.322 174.937 293.689 174.937C292.038 174.937 290.405 174.635 290.121 174.262C289.251 173.499 292.233 170.144 293.778 170.144C295.322 170.144 311.031 162.369 311.706 161.322C312.771 159.6 311.901 150.778 310.463 149.429C309.682 148.666 305.156 147.334 300.434 146.553C295.713 145.79 289.447 144.743 286.553 144.263C283.66 143.784 279.506 142.914 277.394 142.435C271.802 140.997 269.672 141.192 268.039 143.021ZM287.228 150.387C288.186 151.346 284.707 159.121 283.074 159.689C280.181 160.842 277.394 160.647 275.459 159.316C271.217 156.139 278.068 148.381 284.033 149.535C285.577 149.819 287.032 150.21 287.228 150.387Z"
    fill="white"
  />
  <path
    d="M363.574 146.554C364.923 148.187 368.313 149.146 368.988 148.098C369.272 147.708 368.118 146.856 366.378 146.27C362.526 144.939 362.225 144.939 363.574 146.554Z"
    fill="white"
  />
  <path
    d="M372.36 149.908C372.36 150.494 373.23 150.778 374.277 150.689C375.342 150.583 376.212 150.21 376.212 149.82C376.212 149.429 375.342 149.056 374.277 149.056C373.23 149.056 372.36 149.429 372.36 149.908Z"
    fill="white"
  />
  <path
    d="M378.147 151.063C378.147 151.542 379.195 151.932 380.544 151.932C381.893 151.932 382.958 151.737 382.958 151.542C382.958 151.347 381.893 150.974 380.544 150.779C379.195 150.494 378.147 150.69 378.147 151.063Z"
    fill="white"
  />
  <path
    d="M428.665 156.441C427.405 157.772 426.447 159.015 426.535 159.015C426.731 159.122 427.6 159.796 428.559 160.453C430.014 161.607 430.21 161.607 429.624 160.169C429.233 159.317 429.34 158.642 429.819 158.731C432.233 159.122 434.736 157.4 434.346 155.66C433.671 153.086 431.452 153.37 428.665 156.441Z"
    fill="white"
  />
  <path
    d="M359.331 158.641C359.722 159.209 360.396 159.405 360.875 159.121C362.224 158.251 361.94 157.683 360.201 157.683C359.438 157.683 359.047 158.162 359.331 158.641Z"
    fill="white"
  />
  <path
    d="M363.68 161.233C363.68 162.564 373.514 166.31 377.561 166.594C383.827 166.878 382.957 164.961 376.123 163.434C372.733 162.671 369.84 161.712 369.662 161.322C369.165 160.363 363.68 160.275 363.68 161.233Z"
    fill="white"
  />
  <path
    d="M228.704 208.006C228.704 208.184 229.574 208.858 230.621 209.444C232.165 210.296 232.556 210.207 232.556 208.965C232.556 208.184 231.686 207.527 230.621 207.527C229.574 207.527 228.704 207.705 228.704 208.006Z"
    fill="white"
  />
  <path
    d="M234.491 212.319C234.491 212.798 234.97 213.278 235.449 213.278C236.017 213.278 236.408 212.798 236.408 212.319C236.408 211.733 236.017 211.361 235.449 211.361C234.97 211.361 234.491 211.733 234.491 212.319Z"
    fill="white"
  />
  <path
    d="M221.941 220.946C221.941 221.426 222.438 221.905 222.917 221.905C223.485 221.905 223.876 221.426 223.876 220.946C223.876 220.361 223.485 219.988 222.917 219.988C222.438 219.988 221.941 220.361 221.941 220.946Z"
    fill="white"
  />
  <path
    d="M225.811 223.822C225.811 224.301 226.29 224.781 226.858 224.781C227.355 224.781 227.532 224.301 227.248 223.822C226.964 223.236 226.485 222.864 226.183 222.864C226.006 222.864 225.811 223.236 225.811 223.822Z"
    fill="white"
  />
  <path
    d="M291.364 228.509C291.364 230.337 295.89 235.893 296.76 235.023C297.435 234.367 293.104 226.698 292.145 226.698C291.648 226.698 291.364 227.462 291.364 228.509Z"
    fill="white"
  />
  <path
    d="M272.175 229.183C272.175 230.23 272.477 230.532 272.761 229.751C273.045 229.094 272.956 228.224 272.655 227.94C272.371 227.55 272.087 228.135 272.175 229.183Z"
    fill="white"
  />
  <path
    d="M326.084 230.904C326.084 231.774 326.563 232.448 327.043 232.448C327.611 232.448 328.001 232.058 328.001 231.578C328.001 231.01 327.611 230.336 327.043 230.052C326.563 229.75 326.084 230.14 326.084 230.904Z"
    fill="white"
  />
  <path
    d="M257.14 234.739C255.206 237.615 255.987 241.076 258.489 241.076C259.448 241.076 260.708 240.011 261.294 238.68C262.253 236.568 262.146 235.893 260.602 234.26L258.774 232.254L257.14 234.739Z"
    fill="white"
  />
  <path
    d="M275.938 233.407C275.938 233.887 276.418 234.366 277.004 234.366C277.483 234.366 277.678 233.887 277.394 233.407C277.092 232.821 276.613 232.449 276.329 232.449C276.134 232.449 275.938 232.821 275.938 233.407Z"
    fill="white"
  />
  <path
    d="M298.5 238.768C298.784 239.638 299.086 240.685 299.086 241.164C299.086 241.643 299.76 242.034 300.523 242.034C302.352 242.034 302.352 240.685 300.435 238.768C298.5 236.851 297.737 236.851 298.5 238.768Z"
    fill="white"
  />
  <path
    d="M280.288 241.075C280.572 241.555 281.246 242.034 281.814 242.034C282.311 242.034 282.684 241.555 282.684 241.075C282.684 240.489 282.01 240.117 281.14 240.117C280.377 240.117 279.986 240.489 280.288 241.075Z"
    fill="white"
  />
  <path
    d="M213.278 241.928C213.278 242.514 213.651 243.171 214.237 243.473C214.805 243.757 214.912 243.366 214.627 242.603C213.953 240.881 213.278 240.597 213.278 241.928Z"
    fill="white"
  />
  <path
    d="M158.127 243.171C150.796 244.129 140.483 248.265 135.566 252.188C129.673 256.892 123.602 266.761 123.407 271.749C123.407 272.033 123.123 272.406 122.643 272.708C121.383 273.471 120.62 277.305 121.578 277.873C122.058 278.157 122.732 277.394 123.034 276.152C123.993 272.122 130.347 262.342 134.306 258.898C138.158 255.348 145.879 251.141 153.494 248.354C157.932 246.827 174.706 245.762 174.706 247.005C174.706 247.484 175.665 247.786 176.925 247.786C178.079 247.875 180.102 248.443 181.451 249.224C184.451 250.946 188.498 251.141 188.019 249.508C187.717 248.833 186.084 247.786 184.256 247.2C172.771 243.473 170.659 242.993 167.854 243.473C166.133 243.757 164.482 243.65 164.198 243.277C163.914 242.798 161.109 242.798 158.127 243.171Z"
    fill="white"
  />
  <path
    d="M301.481 243.951C301.109 244.608 301.304 245.478 302.067 245.957C303.807 247.005 304.286 246.348 303.132 244.324C302.458 243.17 302.067 243.082 301.481 243.951Z"
    fill="white"
  />
  <path
    d="M257.619 245.478C255.791 246.152 253.182 246.72 251.744 246.72C250.288 246.827 248.07 248.069 246.241 249.986C244.502 251.708 239.691 254.868 235.449 256.892C230.816 259.093 227.532 261.382 227.159 262.447C226.183 265.518 237.277 285.346 240.65 286.695C241.324 286.979 246.152 285.168 251.442 282.665C258.099 279.506 262.057 278.157 264.471 278.352C267.737 278.547 268.039 278.157 270.453 273.666C271.891 270.968 272.565 269.051 272.086 269.352C270.542 270.311 270.151 268.199 271.216 265.039C272.281 262.252 272.654 261.968 275.548 262.447C279.222 263.015 279.222 263.122 277.766 258.028C276.897 254.868 274.98 253.057 274.98 255.454C274.98 255.933 273.329 256.412 271.412 256.412C266.388 256.306 263.406 253.714 263.406 249.401C263.406 244.999 261.862 243.951 257.619 245.478ZM256.377 254.673C257.424 255.933 259.749 259.767 261.578 263.299C264.666 269.636 264.755 269.725 262.927 271.749C260.229 274.713 251.265 279.222 247.306 279.595C243.827 279.896 243.65 279.79 241.91 275.192C240.934 272.601 238.91 268.571 237.366 266.37C234.1 261.578 234.295 261.382 244.129 256.022C251.549 252.099 253.767 251.797 256.377 254.673Z"
    fill="white"
  />
  <path
    d="M285.577 248.353C285.577 249.116 286.056 249.507 286.553 249.223C287.121 248.832 287.317 248.158 287.033 247.679C286.163 246.347 285.577 246.631 285.577 248.353Z"
    fill="white"
  />
  <path
    d="M189.173 251.619C189.173 252.099 189.652 252.578 190.132 252.578C190.718 252.578 191.09 252.099 191.09 251.619C191.09 251.034 190.718 250.661 190.132 250.661C189.652 250.661 189.173 251.034 189.173 251.619Z"
    fill="white"
  />
  <path
    d="M192.066 252.578C192.066 253.235 194.374 254.495 195.528 254.495C196.788 254.495 195.634 252.667 193.983 252.277C192.936 251.993 192.066 252.099 192.066 252.578Z"
    fill="white"
  />
  <path
    d="M306.31 253.537C306.594 254.016 307.091 254.496 307.375 254.496C307.57 254.496 307.766 254.016 307.766 253.537C307.766 252.951 307.269 252.579 306.701 252.579C306.221 252.579 306.026 252.951 306.31 253.537Z"
    fill="white"
  />
  <path
    d="M308.44 255.153C308.049 255.455 307.765 256.218 307.765 256.786C307.765 257.372 308.244 257.265 308.919 256.591C309.487 256.023 309.789 255.26 309.593 254.976C309.292 254.674 308.724 254.78 308.44 255.153Z"
    fill="white"
  />
  <path
    d="M153.104 259.946C152.82 260.336 151.861 260.727 150.992 260.816C148.098 261.295 140.182 267.135 137.679 270.596C134.413 275.389 131.697 283.057 133.046 284.388C133.632 284.974 134.785 283.625 136.436 280.075C140.483 271.271 149.447 263.975 157.542 262.928C158.997 262.733 160.435 262.253 160.826 261.863C161.216 261.49 164.198 261.206 167.376 261.1C171.813 261.011 172.683 260.816 170.855 260.248C167.855 259.289 154.08 259.094 153.104 259.946Z"
    fill="white"
  />
  <path
    d="M172.292 263.974C170.18 265.412 166.612 267.613 164.287 268.873C156.192 273.364 150.69 285.453 151.861 296.085C152.909 306.15 162.068 320.439 169.31 323.119C180.493 327.433 181.061 327.522 186.653 326.954C190.221 326.563 194.09 325.427 196.788 323.883C199.202 322.445 202.185 320.812 203.338 320.244C204.599 319.676 205.557 318.895 205.557 318.522C205.557 318.132 206.143 318.043 206.817 318.327C211.734 320.155 211.734 305.103 206.817 293.6C203.534 285.932 199.096 278.938 194.569 274.429C192.635 272.512 191.09 270.489 191.09 270.116C191.09 269.441 189.457 268.394 181.931 264.169C177.014 261.383 176.144 261.294 172.292 263.974ZM174.511 277.98C174.706 278.938 173.748 280.66 172.399 281.991C171.05 283.251 169.79 285.346 169.79 286.606C169.683 287.938 169.594 289.482 169.506 289.961C169.31 291.488 166.807 292.837 163.914 292.837C161.784 292.837 161.216 292.358 161.216 290.813C161.216 287.565 166.222 279.222 169.399 277.305C172.683 275.281 174.121 275.477 174.511 277.98ZM180.493 283.145C180.493 283.624 179.819 284.494 179.038 285.169C177.405 286.5 174.227 285.737 175.186 284.21C175.576 283.624 176.251 283.429 176.73 283.731C177.209 284.103 177.6 283.819 177.6 283.34C177.6 282.772 178.274 282.293 179.038 282.293C179.819 282.293 180.493 282.666 180.493 283.145ZM177.014 293.121C176.056 295.712 169.878 296.085 169.878 293.6C169.878 293.121 171.05 291.399 172.488 289.855L175.186 287.086L176.34 289.375C177.014 290.724 177.316 292.358 177.014 293.121Z"
    fill="white"
  />
  <path
    d="M292.322 264.08C292.322 264.56 292.819 265.039 293.387 265.039C293.867 265.039 294.062 264.56 293.778 264.08C293.494 263.495 293.015 263.122 292.713 263.122C292.518 263.122 292.322 263.495 292.322 264.08Z"
    fill="white"
  />
  <path
    d="M310.748 264.648C310.748 265.696 311.032 265.997 311.333 265.216C311.617 264.56 311.511 263.69 311.227 263.406C310.943 263.015 310.641 263.601 310.748 264.648Z"
    fill="white"
  />
  <path
    d="M293.299 270.01C293.299 270.879 293.778 271.927 294.364 272.229C295.997 273.276 296.086 272.406 294.648 270.4C293.494 268.767 293.299 268.767 293.299 270.01Z"
    fill="white"
  />
  <path
    d="M324.913 274.145C322.126 277.393 316.925 277.5 315.949 274.322C315.381 272.317 315.275 272.317 314.405 275.103C313.642 277.784 314.032 283.251 315.079 283.251C315.381 283.251 316.73 282.381 318.168 281.423C319.624 280.375 322.41 279.31 324.434 278.938C326.369 278.636 328.002 277.873 328.002 277.198C328.002 276.541 328.286 275.103 328.588 273.843C329.351 270.968 327.523 271.163 324.913 274.145Z"
    fill="white"
  />
  <path
    d="M269.282 286.305C269.193 289.003 269.584 289.962 270.631 289.962C272.282 289.962 272.566 288.897 271.217 287.459C270.738 286.98 270.152 285.737 269.868 284.69C269.584 283.625 269.389 284.299 269.282 286.305Z"
    fill="white"
  />
  <path
    d="M131.803 287.37C131.413 288.133 131.324 289.855 131.519 291.098C131.892 293.317 131.892 293.317 133.241 290.619C134.217 288.613 134.306 287.743 133.436 286.891C132.673 286.128 132.194 286.216 131.803 287.37Z"
    fill="white"
  />
  <path
    d="M270.827 293.795C271.129 294.842 271.697 295.712 272.087 295.712C272.566 295.712 272.655 294.842 272.371 293.795C272.087 292.73 271.501 291.878 271.129 291.878C270.632 291.878 270.543 292.73 270.827 293.795Z"
    fill="white"
  />
  <path
    d="M298.499 294.274C298.304 297.434 299.564 297.434 299.849 294.274C299.955 292.925 299.653 291.878 299.28 291.878C298.89 291.878 298.499 292.925 298.499 294.274Z"
    fill="white"
  />
  <path
    d="M327.043 292.838C327.043 294.453 319.233 297.914 318.079 296.761C316.535 295.234 315.86 295.412 315.753 297.329C315.665 298.287 315.185 301.642 314.706 304.819C314.12 308.352 314.12 310.943 314.6 311.529C315.753 312.665 317.6 310.18 317.014 308.547C315.949 305.778 323.67 300.879 327.238 302.033C328.782 302.512 328.96 302.121 328.587 298.873C328.392 296.849 328.587 294.755 329.067 294.169C329.652 293.406 329.457 292.838 328.481 292.447C327.717 292.163 327.043 292.359 327.043 292.838Z"
    fill="white"
  />
  <path
    d="M287.228 293.494C286.163 294.452 286.447 297.63 287.512 297.63C288.098 297.63 288.47 296.565 288.47 295.233C288.47 292.73 288.275 292.446 287.228 293.494Z"
    fill="white"
  />
  <path
    d="M244.698 294.647C244.414 295.127 244.804 295.996 245.567 296.671C246.348 297.328 247.023 298.872 247.023 300.114C247.023 301.268 247.502 302.6 247.981 302.901C249.331 303.665 249.242 299.245 247.786 296.192C246.632 293.689 245.567 293.121 244.698 294.647Z"
    fill="white"
  />
  <path
    d="M270.631 306.824C270.631 311.901 270.347 316.214 269.868 316.498C268.803 317.084 270.063 318.717 271.607 318.717C272.654 318.717 272.85 316.694 272.761 309.132C272.654 303.86 272.282 299.546 271.802 299.546C271.412 299.546 271.305 299.067 271.607 298.588C271.891 298.002 271.891 297.629 271.412 297.629C271.021 297.629 270.631 301.748 270.631 306.824Z"
    fill="white"
  />
  <path
    d="M224.159 302.6C224.55 303.559 224.355 304.34 223.875 304.34C223.485 304.34 223.68 305.582 224.461 307.216C225.331 308.742 226.094 310.091 226.29 310.091C227.053 310.091 225.508 302.902 224.55 301.944C223.875 301.269 223.787 301.553 224.159 302.6Z"
    fill="white"
  />
  <path
    d="M299.565 307.215C299.281 307.694 299.458 308.173 299.955 308.173C300.523 308.173 301.003 307.694 301.003 307.215C301.003 306.629 300.807 306.256 300.63 306.256C300.328 306.256 299.849 306.629 299.565 307.215Z"
    fill="white"
  />
  <path
    d="M225.509 314.883C224.941 316.126 224.462 318.132 222.438 327.823C221.764 330.593 220.308 333.947 217.61 338.74C215.782 341.9 208.646 349.089 204.119 352.16C197.072 356.864 180.688 360.786 175.381 359.065C172.399 358 169.594 359.065 171.813 360.396C173.748 361.55 193.7 360.982 197.747 359.544C207.101 356.384 218.373 347.083 221.568 339.983C226.095 329.634 226.858 326.563 225.899 322.356C225.42 320.244 225.42 318.522 226.006 317.936C226.574 317.368 226.769 316.215 226.485 315.256C226.183 313.729 226.006 313.729 225.509 314.883Z"
    fill="white"
  />
  <path
    d="M295.89 323.51C297.737 325.604 298.695 325.32 297.825 323.031C297.435 322.25 296.565 321.593 295.713 321.593C294.453 321.593 294.541 321.877 295.89 323.51Z"
    fill="white"
  />
  <path
    d="M205.468 329.261C199.38 340.568 190.131 346.497 177.99 346.887C174.032 346.976 170.854 346.799 170.854 346.319C170.854 345.929 169.984 345.538 169.008 345.538C167.961 345.538 166.807 345.059 166.505 344.58C165.742 343.337 164.091 343.337 164.091 344.58C164.091 345.645 172.292 349.373 175.771 349.763C177.12 349.958 181.061 349.674 184.345 349.195C194.09 347.935 203.143 341.704 206.338 334.054C208.166 329.74 209.71 323.51 208.929 323.51C208.734 323.51 207.19 326.084 205.468 329.261Z"
    fill="white"
  />
  <path
    d="M153.299 338.545C153.974 338.829 154.843 338.74 155.127 338.456C155.518 338.172 154.932 337.871 153.885 337.977C152.82 337.977 152.536 338.261 153.299 338.545Z"
    fill="white"
  />
  <path
    d="M111.461 369.413C112.029 370.372 117.815 372.573 117.815 371.898C117.815 371.419 112.419 368.543 111.549 368.543C111.265 368.543 111.177 368.934 111.461 369.413Z"
    fill="white"
  />
  <path
    d="M308.138 372.572C304.677 373.442 301.482 376.69 300.63 380.241C299.849 383.507 301.677 384.749 302.848 381.785C303.807 379.193 310.357 374.294 312.86 374.294C313.73 374.294 314.511 373.921 314.511 373.442C314.511 372.093 311.422 371.72 308.138 372.572Z"
    fill="white"
  />
  <path
    d="M272.087 396.537C272.087 396.927 273.436 397.3 275.175 397.3C276.808 397.3 277.873 397.016 277.483 396.537C276.524 395.578 272.087 395.578 272.087 396.537Z"
    fill="white"
  />
  <path
    d="M291.364 399.217C290.21 399.998 290.299 400.176 292.145 400.176C293.299 400.176 294.257 399.696 294.257 399.217C294.257 397.975 293.192 397.975 291.364 399.217Z"
    fill="white"
  />
</svg>
